<svg width="1728" height="1117" viewBox="0 0 1728 1117" fill="none" xmlns="http://www.w3.org/2000/svg">
<rect width="1728" height="1117" fill="url('#paint0_radial_289_385')"></rect>
<path d="M22.8447 1061.28V1086.91C22.8447 1092.43 27.3219 1096.91 32.8447 1096.91H95.89C101.413 1096.91 105.89 1092.43 105.89 1086.91V1061.38C105.89 1057.61 103.778 1054.17 100.425 1052.46L68.2474 1036.09C65.3521 1034.61 61.9213 1034.64 59.0476 1036.15L28.1805 1052.43C24.8987 1054.16 22.8447 1057.57 22.8447 1061.28Z" fill="url('#paint1_linear_289_385')" fill-opacity="0.5"></path>
<path d="M128.985 1061.28V1086.91C128.985 1092.43 133.463 1096.91 138.985 1096.91H202.031C207.553 1096.91 212.031 1092.43 212.031 1086.91V1061.38C212.031 1057.61 209.919 1054.17 206.566 1052.46L174.388 1036.09C171.493 1034.61 168.062 1034.64 165.188 1036.15L134.321 1052.43C131.039 1054.16 128.985 1057.57 128.985 1061.28Z" fill="url('#paint2_linear_289_385')" fill-opacity="0.5"></path>
<path d="M235.126 1061.28V1086.91C235.126 1092.43 239.603 1096.91 245.126 1096.91H308.171C313.694 1096.91 318.171 1092.43 318.171 1086.91V1061.38C318.171 1057.61 316.06 1054.17 312.707 1052.46L280.529 1036.09C277.633 1034.61 274.203 1034.64 271.329 1036.15L240.462 1052.43C237.18 1054.16 235.126 1057.57 235.126 1061.28Z" fill="url('#paint3_linear_289_385')" fill-opacity="0.5"></path>
<path d="M341.267 1061.28V1086.91C341.267 1092.43 345.744 1096.91 351.267 1096.91H414.312C419.835 1096.91 424.312 1092.43 424.312 1086.91V1061.38C424.312 1057.61 422.2 1054.17 418.847 1052.46L386.669 1036.09C383.774 1034.61 380.343 1034.64 377.47 1036.15L346.602 1052.43C343.321 1054.16 341.267 1057.57 341.267 1061.28Z" fill="url('#paint4_linear_289_385')" fill-opacity="0.5"></path>
<path d="M447.408 1061.28V1086.91C447.408 1092.43 451.885 1096.91 457.408 1096.91H520.453C525.976 1096.91 530.453 1092.43 530.453 1086.91V1061.38C530.453 1057.61 528.342 1054.17 524.989 1052.46L492.811 1036.09C489.916 1034.61 486.485 1034.64 483.611 1036.15L452.744 1052.43C449.462 1054.16 447.408 1057.57 447.408 1061.28Z" fill="url('#paint5_linear_289_385')" fill-opacity="0.5"></path>
<path d="M553.548 1061.28V1086.91C553.548 1092.43 558.025 1096.91 563.548 1096.91H626.593C632.116 1096.91 636.593 1092.43 636.593 1086.91V1061.38C636.593 1057.61 634.482 1054.17 631.129 1052.46L598.951 1036.09C596.055 1034.61 592.624 1034.64 589.751 1036.15L558.884 1052.43C555.602 1054.16 553.548 1057.57 553.548 1061.28Z" fill="url('#paint6_linear_289_385')" fill-opacity="0.5"></path>
<path d="M659.689 1061.28V1086.91C659.689 1092.43 664.167 1096.91 669.689 1096.91H732.735C738.258 1096.91 742.735 1092.43 742.735 1086.91V1061.38C742.735 1057.61 740.623 1054.17 737.27 1052.46L705.092 1036.09C702.197 1034.61 698.766 1034.64 695.892 1036.15L665.025 1052.43C661.743 1054.16 659.689 1057.57 659.689 1061.28Z" fill="url('#paint7_linear_289_385')" fill-opacity="0.5"></path>
<path d="M765.83 1061.28V1086.91C765.83 1092.43 770.307 1096.91 775.83 1096.91H838.875C844.398 1096.91 848.875 1092.43 848.875 1086.91V1061.38C848.875 1057.61 846.764 1054.17 843.411 1052.46L811.233 1036.09C808.337 1034.61 804.907 1034.64 802.033 1036.15L771.166 1052.43C767.884 1054.16 765.83 1057.57 765.83 1061.28Z" fill="url('#paint8_linear_289_385')" fill-opacity="0.5"></path>
<path d="M871.969 1061.28V1086.91C871.969 1092.43 876.446 1096.91 881.969 1096.91H945.014C950.537 1096.91 955.014 1092.43 955.014 1086.91V1061.38C955.014 1057.61 952.902 1054.17 949.549 1052.46L917.371 1036.09C914.476 1034.61 911.045 1034.64 908.172 1036.15L877.304 1052.43C874.023 1054.16 871.969 1057.57 871.969 1061.28Z" fill="url('#paint9_linear_289_385')" fill-opacity="0.5"></path>
<path d="M978.111 1061.28V1086.91C978.111 1092.43 982.588 1096.91 988.111 1096.91H1051.16C1056.68 1096.91 1061.16 1092.43 1061.16 1086.91V1061.38C1061.16 1057.61 1059.05 1054.17 1055.69 1052.46L1023.51 1036.09C1020.62 1034.61 1017.19 1034.64 1014.31 1036.15L983.447 1052.43C980.165 1054.16 978.111 1057.57 978.111 1061.28Z" fill="url('#paint10_linear_289_385')" fill-opacity="0.5"></path>
<path d="M1084.25 1061.28V1086.91C1084.25 1092.43 1088.73 1096.91 1094.25 1096.91H1157.3C1162.82 1096.91 1167.3 1092.43 1167.3 1086.91V1061.38C1167.3 1057.61 1165.19 1054.17 1161.83 1052.46L1129.65 1036.09C1126.76 1034.61 1123.33 1034.64 1120.45 1036.15L1089.59 1052.43C1086.31 1054.16 1084.25 1057.57 1084.25 1061.28Z" fill="url('#paint11_linear_289_385')" fill-opacity="0.5"></path>
<path d="M1190.39 1061.28V1086.91C1190.39 1092.43 1194.87 1096.91 1200.39 1096.91H1263.44C1268.96 1096.91 1273.44 1092.43 1273.44 1086.91V1061.38C1273.44 1057.61 1271.32 1054.17 1267.97 1052.46L1235.79 1036.09C1232.9 1034.61 1229.47 1034.64 1226.59 1036.15L1195.73 1052.43C1192.44 1054.16 1190.39 1057.57 1190.39 1061.28Z" fill="url('#paint12_linear_289_385')" fill-opacity="0.5"></path>
<path d="M1296.53 1061.28V1086.91C1296.53 1092.43 1301.01 1096.91 1306.53 1096.91H1369.58C1375.1 1096.91 1379.58 1092.43 1379.58 1086.91V1061.38C1379.58 1057.61 1377.47 1054.17 1374.11 1052.46L1341.94 1036.09C1339.04 1034.61 1335.61 1034.64 1332.74 1036.15L1301.87 1052.43C1298.59 1054.16 1296.53 1057.57 1296.53 1061.28Z" fill="url('#paint13_linear_289_385')" fill-opacity="0.5"></path>
<path d="M1402.67 1061.28V1086.91C1402.67 1092.43 1407.15 1096.91 1412.67 1096.91H1475.72C1481.24 1096.91 1485.72 1092.43 1485.72 1086.91V1061.38C1485.72 1057.61 1483.61 1054.17 1480.25 1052.46L1448.07 1036.09C1445.18 1034.61 1441.75 1034.64 1438.87 1036.15L1408.01 1052.43C1404.73 1054.16 1402.67 1057.57 1402.67 1061.28Z" fill="url('#paint14_linear_289_385')" fill-opacity="0.5"></path>
<path d="M1508.81 1061.28V1086.91C1508.81 1092.43 1513.29 1096.91 1518.81 1096.91H1581.86C1587.38 1096.91 1591.86 1092.43 1591.86 1086.91V1061.38C1591.86 1057.61 1589.75 1054.17 1586.4 1052.46L1554.22 1036.09C1551.32 1034.61 1547.89 1034.64 1545.02 1036.15L1514.15 1052.43C1510.87 1054.16 1508.81 1057.57 1508.81 1061.28Z" fill="url('#paint15_linear_289_385')" fill-opacity="0.5"></path>
<path d="M1614.96 1061.28V1086.91C1614.96 1092.43 1619.43 1096.91 1624.96 1096.91H1688C1693.52 1096.91 1698 1092.43 1698 1086.91V1061.38C1698 1057.61 1695.89 1054.17 1692.54 1052.46L1660.36 1036.09C1657.46 1034.61 1654.03 1034.64 1651.16 1036.15L1620.29 1052.43C1617.01 1054.16 1614.96 1057.57 1614.96 1061.28Z" fill="url('#paint16_linear_289_385')" fill-opacity="0.5"></path>
<path d="M76.8975 1001.94V968.758C76.8975 965.165 78.8248 961.848 81.9463 960.069L111.432 943.266C114.406 941.571 118.042 941.516 121.067 943.119L153.152 960.128C156.423 961.862 158.469 965.261 158.469 968.964V1001.73C158.469 1005.44 156.423 1008.84 153.152 1010.57L121.067 1027.58C118.042 1029.18 114.406 1029.13 111.432 1027.43L81.9463 1010.63C78.8248 1008.85 76.8975 1005.53 76.8975 1001.94Z" fill="url('#paint17_linear_289_385')" fill-opacity="0.5"></path>
<path d="M182.056 1001.94V968.758C182.056 965.165 183.983 961.848 187.105 960.069L216.59 943.266C219.565 941.571 223.2 941.516 226.225 943.119L258.31 960.128C261.581 961.862 263.627 965.261 263.627 968.964V1001.73C263.627 1005.44 261.581 1008.84 258.31 1010.57L226.225 1027.58C223.2 1029.18 219.565 1029.13 216.59 1027.43L187.105 1010.63C183.983 1008.85 182.056 1005.53 182.056 1001.94Z" fill="url('#paint18_linear_289_385')" fill-opacity="0.5"></path>
<path d="M287.214 1001.94V968.758C287.214 965.165 289.141 961.848 292.263 960.069L321.748 943.266C324.723 941.571 328.358 941.516 331.383 943.119L363.469 960.128C366.74 961.862 368.785 965.261 368.785 968.964V1001.73C368.785 1005.44 366.74 1008.84 363.469 1010.57L331.383 1027.58C328.358 1029.18 324.723 1029.13 321.748 1027.43L292.263 1010.63C289.141 1008.85 287.214 1005.53 287.214 1001.94Z" fill="url('#paint19_linear_289_385')" fill-opacity="0.5"></path>
<path d="M392.371 1001.94V968.758C392.371 965.165 394.298 961.848 397.42 960.069L426.905 943.266C429.88 941.571 433.515 941.516 436.54 943.119L468.626 960.128C471.897 961.862 473.942 965.261 473.942 968.964V1001.73C473.942 1005.44 471.897 1008.84 468.626 1010.57L436.54 1027.58C433.515 1029.18 429.88 1029.13 426.905 1027.43L397.42 1010.63C394.298 1008.85 392.371 1005.53 392.371 1001.94Z" fill="url('#paint20_linear_289_385')" fill-opacity="0.5"></path>
<path d="M497.529 1001.94V968.758C497.529 965.165 499.457 961.848 502.578 960.069L532.064 943.266C535.038 941.571 538.673 941.516 541.699 943.119L573.784 960.128C577.055 961.862 579.1 965.261 579.1 968.964V1001.73C579.1 1005.44 577.055 1008.84 573.784 1010.57L541.699 1027.58C538.673 1029.18 535.038 1029.13 532.064 1027.43L502.578 1010.63C499.457 1008.85 497.529 1005.53 497.529 1001.94Z" fill="url('#paint21_linear_289_385')" fill-opacity="0.5"></path>
<path d="M602.688 1001.94V968.758C602.688 965.165 604.615 961.848 607.736 960.069L637.222 943.266C640.197 941.571 643.832 941.516 646.857 943.119L678.942 960.128C682.213 961.862 684.259 965.261 684.259 968.964V1001.73C684.259 1005.44 682.213 1008.84 678.942 1010.57L646.857 1027.58C643.832 1029.18 640.197 1029.13 637.222 1027.43L607.736 1010.63C604.615 1008.85 602.688 1005.53 602.688 1001.94Z" fill="url('#paint22_linear_289_385')" fill-opacity="0.5"></path>
<path d="M707.846 1001.94V968.758C707.846 965.165 709.773 961.848 712.895 960.069L742.38 943.266C745.355 941.571 748.99 941.516 752.015 943.119L784.1 960.128C787.371 961.862 789.417 965.261 789.417 968.964V1001.73C789.417 1005.44 787.371 1008.84 784.1 1010.57L752.015 1027.58C748.99 1029.18 745.355 1029.13 742.38 1027.43L712.895 1010.63C709.773 1008.85 707.846 1005.53 707.846 1001.94Z" fill="url('#paint23_linear_289_385')" fill-opacity="0.5"></path>
<path d="M813.002 1001.94V968.758C813.002 965.165 814.929 961.848 818.051 960.069L847.536 943.266C850.511 941.571 854.146 941.516 857.171 943.119L889.257 960.128C892.528 961.862 894.573 965.261 894.573 968.964V1001.73C894.573 1005.44 892.528 1008.84 889.257 1010.57L857.171 1027.58C854.146 1029.18 850.511 1029.13 847.536 1027.43L818.051 1010.63C814.929 1008.85 813.002 1005.53 813.002 1001.94Z" fill="url('#paint24_linear_289_385')" fill-opacity="0.5"></path>
<path d="M918.16 1001.94V968.758C918.16 965.165 920.087 961.848 923.209 960.069L952.695 943.266C955.669 941.571 959.304 941.516 962.329 943.119L994.415 960.128C997.686 961.862 999.731 965.261 999.731 968.964V1001.73C999.731 1005.44 997.686 1008.84 994.415 1010.57L962.329 1027.58C959.304 1029.18 955.669 1029.13 952.695 1027.43L923.209 1010.63C920.087 1008.85 918.16 1005.53 918.16 1001.94Z" fill="url('#paint25_linear_289_385')" fill-opacity="0.5"></path>
<path d="M1023.32 1001.94V968.758C1023.32 965.165 1025.25 961.848 1028.37 960.069L1057.85 943.266C1060.83 941.571 1064.46 941.516 1067.49 943.119L1099.57 960.128C1102.84 961.862 1104.89 965.261 1104.89 968.964V1001.73C1104.89 1005.44 1102.84 1008.84 1099.57 1010.57L1067.49 1027.58C1064.46 1029.18 1060.83 1029.13 1057.85 1027.43L1028.37 1010.63C1025.25 1008.85 1023.32 1005.53 1023.32 1001.94Z" fill="url('#paint26_linear_289_385')" fill-opacity="0.5"></path>
<path d="M1128.48 1001.94V968.758C1128.48 965.165 1130.4 961.848 1133.53 960.069L1163.01 943.266C1165.99 941.571 1169.62 941.516 1172.65 943.119L1204.73 960.128C1208 961.862 1210.05 965.261 1210.05 968.964V1001.73C1210.05 1005.44 1208 1008.84 1204.73 1010.57L1172.65 1027.58C1169.62 1029.18 1165.99 1029.13 1163.01 1027.43L1133.53 1010.63C1130.4 1008.85 1128.48 1005.53 1128.48 1001.94Z" fill="url('#paint27_linear_289_385')" fill-opacity="0.5"></path>
<path d="M1233.63 1001.94V968.758C1233.63 965.165 1235.56 961.848 1238.68 960.069L1268.17 943.266C1271.14 941.571 1274.78 941.516 1277.8 943.119L1309.89 960.128C1313.16 961.862 1315.21 965.261 1315.21 968.964V1001.73C1315.21 1005.44 1313.16 1008.84 1309.89 1010.57L1277.8 1027.58C1274.78 1029.18 1271.14 1029.13 1268.17 1027.43L1238.68 1010.63C1235.56 1008.85 1233.63 1005.53 1233.63 1001.94Z" fill="url('#paint28_linear_289_385')" fill-opacity="0.5"></path>
<path d="M1338.79 1001.94V968.758C1338.79 965.165 1340.72 961.848 1343.84 960.069L1373.33 943.266C1376.3 941.571 1379.94 941.516 1382.96 943.119L1415.05 960.128C1418.32 961.862 1420.36 965.261 1420.36 968.964V1001.73C1420.36 1005.44 1418.32 1008.84 1415.05 1010.57L1382.96 1027.58C1379.94 1029.18 1376.3 1029.13 1373.33 1027.43L1343.84 1010.63C1340.72 1008.85 1338.79 1005.53 1338.79 1001.94Z" fill="url('#paint29_linear_289_385')" fill-opacity="0.5"></path>
<path d="M1443.95 1001.94V968.758C1443.95 965.165 1445.88 961.848 1449 960.069L1478.49 943.266C1481.46 941.571 1485.1 941.516 1488.12 943.119L1520.21 960.128C1523.48 961.862 1525.52 965.261 1525.52 968.964V1001.73C1525.52 1005.44 1523.48 1008.84 1520.21 1010.57L1488.12 1027.58C1485.1 1029.18 1481.46 1029.13 1478.49 1027.43L1449 1010.63C1445.88 1008.85 1443.95 1005.53 1443.95 1001.94Z" fill="url('#paint30_linear_289_385')" fill-opacity="0.5"></path>
<path d="M1549.11 1001.94V968.758C1549.11 965.165 1551.03 961.848 1554.16 960.069L1583.64 943.266C1586.62 941.571 1590.25 941.516 1593.28 943.119L1625.36 960.128C1628.63 961.862 1630.68 965.261 1630.68 968.964V1001.73C1630.68 1005.44 1628.63 1008.84 1625.36 1010.57L1593.28 1027.58C1590.25 1029.18 1586.62 1029.13 1583.64 1027.43L1554.16 1010.63C1551.03 1008.85 1549.11 1005.53 1549.11 1001.94Z" fill="url('#paint31_linear_289_385')" fill-opacity="0.5"></path>
<path d="M22.8447 912.331V879.149C22.8447 875.556 24.7721 872.239 27.8936 870.46L57.3791 853.657C60.3538 851.962 63.9889 851.907 67.0139 853.51L99.0995 870.519C102.37 872.253 104.416 875.652 104.416 879.355V912.125C104.416 915.827 102.37 919.226 99.0995 920.96L67.0139 937.969C63.9889 939.573 60.3538 939.517 57.3791 937.822L27.8936 921.019C24.7721 919.24 22.8447 915.924 22.8447 912.331Z" fill="url('#paint32_linear_289_385')" fill-opacity="0.5"></path>
<path d="M128.003 912.331V879.149C128.003 875.556 129.93 872.239 133.052 870.46L162.537 853.657C165.512 851.962 169.147 851.907 172.172 853.51L204.258 870.519C207.529 872.253 209.574 875.652 209.574 879.355V912.125C209.574 915.827 207.529 919.226 204.258 920.96L172.172 937.969C169.147 939.573 165.512 939.517 162.537 937.822L133.052 921.019C129.93 919.24 128.003 915.924 128.003 912.331Z" fill="url('#paint33_linear_289_385')" fill-opacity="0.5"></path>
<path d="M667.551 716.983V683.801C667.551 680.208 669.478 676.891 672.6 675.113L702.085 658.31C705.06 656.615 708.695 656.559 711.72 658.163L743.806 675.172C747.076 676.906 749.122 680.305 749.122 684.007V716.777C749.122 720.479 747.076 723.879 743.806 725.613L711.72 742.621C708.695 744.225 705.06 744.169 702.085 742.474L672.6 725.671C669.478 723.893 667.551 720.576 667.551 716.983Z" fill="url('#paint34_linear_289_385')" fill-opacity="0.5"></path>
<path d="M978.111 625.582V592.4C978.111 588.807 980.039 585.49 983.16 583.711L1012.65 566.909C1015.62 565.213 1019.26 565.158 1022.28 566.761L1054.37 583.77C1057.64 585.504 1059.68 588.903 1059.68 592.606V625.376C1059.68 629.078 1057.64 632.477 1054.37 634.211L1022.28 651.22C1019.26 652.824 1015.62 652.768 1012.65 651.073L983.16 634.27C980.039 632.491 978.111 629.175 978.111 625.582Z" fill="url('#paint35_linear_289_385')" fill-opacity="0.5"></path>
<path d="M1233.63 761.788V728.605C1233.63 725.013 1235.56 721.696 1238.68 719.917L1268.17 703.114C1271.14 701.419 1274.78 701.364 1277.8 702.967L1309.89 719.976C1313.16 721.71 1315.21 725.109 1315.21 728.811V761.582C1315.21 765.284 1313.16 768.683 1309.89 770.417L1277.8 787.426C1274.78 789.029 1271.14 788.974 1268.17 787.279L1238.68 770.476C1235.56 768.697 1233.63 765.38 1233.63 761.788Z" fill="url('#paint36_linear_289_385')" fill-opacity="0.5"></path>
<path d="M89 203.396V170.213C89 166.621 90.9273 163.304 94.0488 161.525L123.534 144.722C126.509 143.027 130.144 142.972 133.169 144.575L165.255 161.584C168.526 163.318 170.571 166.717 170.571 170.419V203.19C170.571 206.892 168.526 210.291 165.255 212.025L133.169 229.034C130.144 230.637 126.509 230.582 123.534 228.887L94.0488 212.084C90.9273 210.305 89 206.988 89 203.396Z" fill="url('#paint37_linear_289_385')" fill-opacity="0.5"></path>
<path d="M512 187.396V154.213C512 150.621 513.927 147.304 517.049 145.525L546.534 128.722C549.509 127.027 553.144 126.972 556.169 128.575L588.255 145.584C591.526 147.318 593.571 150.717 593.571 154.419V187.19C593.571 190.892 591.526 194.291 588.255 196.025L556.169 213.034C553.144 214.637 549.509 214.582 546.534 212.887L517.049 196.084C513.927 194.305 512 190.988 512 187.396Z" fill="url('#paint38_linear_289_385')" fill-opacity="0.5"></path>
<path d="M789 306.396V273.213C789 269.621 790.927 266.304 794.049 264.525L823.534 247.722C826.509 246.027 830.144 245.972 833.169 247.575L865.255 264.584C868.526 266.318 870.571 269.717 870.571 273.419V306.19C870.571 309.892 868.526 313.291 865.255 315.025L833.169 332.034C830.144 333.637 826.509 333.582 823.534 331.887L794.049 315.084C790.927 313.305 789 309.988 789 306.396Z" fill="url('#paint39_linear_289_385')" fill-opacity="0.5"></path>
<path d="M1498 216.396V183.213C1498 179.621 1499.93 176.304 1503.05 174.525L1532.53 157.722C1535.51 156.027 1539.14 155.972 1542.17 157.575L1574.25 174.584C1577.53 176.318 1579.57 179.717 1579.57 183.419V216.19C1579.57 219.892 1577.53 223.291 1574.25 225.025L1542.17 242.034C1539.14 243.637 1535.51 243.582 1532.53 241.887L1503.05 225.084C1499.93 223.305 1498 219.988 1498 216.396Z" fill="url('#paint40_linear_289_385')" fill-opacity="0.5"></path>
<path d="M1215 87.3957V54.2134C1215 50.6206 1216.93 47.3039 1220.05 45.5251L1249.53 28.7223C1252.51 27.0271 1256.14 26.9716 1259.17 28.5752L1291.25 45.584C1294.53 47.318 1296.57 50.7172 1296.57 54.4194V87.1897C1296.57 90.8918 1294.53 94.291 1291.25 96.025L1259.17 113.034C1256.14 114.637 1252.51 114.582 1249.53 112.887L1220.05 96.0839C1216.93 94.3051 1215 90.9885 1215 87.3957Z" fill="url('#paint41_linear_289_385')" fill-opacity="0.5"></path>
<path d="M1551.07 822.722V789.54C1551.07 785.947 1553 782.63 1556.12 780.851L1585.61 764.048C1588.58 762.353 1592.22 762.298 1595.24 763.901L1627.33 780.91C1630.6 782.644 1632.64 786.043 1632.64 789.746V822.516C1632.64 826.218 1630.6 829.617 1627.33 831.351L1595.24 848.36C1592.22 849.964 1588.58 849.908 1585.61 848.213L1556.12 831.41C1553 829.631 1551.07 826.315 1551.07 822.722Z" fill="url('#paint42_linear_289_385')" fill-opacity="0.5"></path>
<path d="M84.7607 785.059V763.58C84.7607 759.854 86.8321 756.437 90.1355 754.714L112.505 743.044C115.312 741.58 118.647 741.531 121.496 742.914L145.956 754.784C149.402 756.456 151.59 759.95 151.59 763.78V784.859C151.59 788.689 149.402 792.183 145.956 793.855L121.496 805.725C118.647 807.108 115.312 807.059 112.505 805.595L90.1355 793.925C86.8321 792.202 84.7607 788.785 84.7607 785.059Z" fill="url('#paint43_linear_289_385')" fill-opacity="0.5"></path>
<path d="M1431.17 677.528V656.049C1431.17 652.323 1433.25 648.906 1436.55 647.183L1458.92 635.513C1461.73 634.049 1465.06 634 1467.91 635.383L1492.37 647.253C1495.82 648.925 1498 652.419 1498 656.249V677.328C1498 681.158 1495.82 684.652 1492.37 686.324L1467.91 698.194C1465.06 699.577 1461.73 699.528 1458.92 698.064L1436.55 686.394C1433.25 684.671 1431.17 681.254 1431.17 677.528Z" fill="url('#paint44_linear_289_385')" fill-opacity="0.5"></path>
<path d="M526.03 662.938V645.548C526.03 641.926 527.989 638.587 531.151 636.819L547.372 627.752C550.311 626.109 553.878 626.056 556.865 627.609L574.697 636.881C578.007 638.602 580.083 642.023 580.083 645.753V662.734C580.083 666.464 578.007 669.885 574.697 671.606L556.865 680.878C553.878 682.431 550.311 682.377 547.372 680.735L531.151 671.667C527.989 669.9 526.03 666.561 526.03 662.938Z" fill="url('#paint45_linear_289_385')" fill-opacity="0.5"></path>
<path d="M250 501.818V484.428C250 480.806 251.959 477.466 255.121 475.699L271.342 466.632C274.28 464.989 277.848 464.935 280.835 466.488L298.667 475.761C301.976 477.482 304.053 480.902 304.053 484.633V501.613C304.053 505.344 301.976 508.764 298.667 510.485L280.835 519.758C277.848 521.311 274.28 521.257 271.342 519.614L255.121 510.547C251.959 508.779 250 505.44 250 501.818Z" fill="url('#paint46_linear_289_385')" fill-opacity="0.5"></path>
<path d="M988 179.818V162.428C988 158.806 989.959 155.466 993.121 153.699L1009.34 144.632C1012.28 142.989 1015.85 142.935 1018.83 144.488L1036.67 153.761C1039.98 155.482 1042.05 158.902 1042.05 162.633V179.613C1042.05 183.344 1039.98 186.764 1036.67 188.485L1018.83 197.758C1015.85 199.311 1012.28 199.257 1009.34 197.614L993.121 188.547C989.959 186.779 988 183.44 988 179.818Z" fill="url('#paint47_linear_289_385')" fill-opacity="0.5"></path>
<path d="M1353 282.818V265.428C1353 261.806 1354.96 258.466 1358.12 256.699L1374.34 247.632C1377.28 245.989 1380.85 245.935 1383.83 247.488L1401.67 256.761C1404.98 258.482 1407.05 261.902 1407.05 265.633V282.613C1407.05 286.344 1404.98 289.764 1401.67 291.485L1383.83 300.758C1380.85 302.311 1377.28 302.257 1374.34 300.614L1358.12 291.547C1354.96 289.779 1353 286.44 1353 282.818Z" fill="url('#paint48_linear_289_385')" fill-opacity="0.5"></path>
<path d="M1600 427.818V410.428C1600 406.806 1601.96 403.466 1605.12 401.699L1621.34 392.632C1624.28 390.989 1627.85 390.935 1630.83 392.488L1648.67 401.761C1651.98 403.482 1654.05 406.902 1654.05 410.633V427.613C1654.05 431.344 1651.98 434.764 1648.67 436.485L1630.83 445.758C1627.85 447.311 1624.28 447.257 1621.34 445.614L1605.12 436.547C1601.96 434.779 1600 431.44 1600 427.818Z" fill="url('#paint49_linear_289_385')" fill-opacity="0.5"></path>
<path d="M749.121 545.902V532.289C749.121 528.498 751.265 525.033 754.658 523.341L770.864 515.257C773.586 513.9 776.777 513.855 779.536 515.135L797.383 523.415C800.915 525.054 803.174 528.593 803.174 532.487V545.705C803.174 549.598 800.915 553.137 797.383 554.776L779.536 563.057C776.777 564.337 773.586 564.292 770.864 562.934L754.658 554.851C751.265 553.158 749.121 549.693 749.121 545.902Z" fill="url('#paint50_linear_289_385')" fill-opacity="0.5"></path>
<path d="M1019 454.793V441.18C1019 437.389 1021.14 433.924 1024.54 432.232L1040.74 424.148C1043.46 422.791 1046.66 422.745 1049.42 424.026L1067.26 432.306C1070.79 433.945 1073.05 437.484 1073.05 441.377V454.596C1073.05 458.489 1070.79 462.028 1067.26 463.667L1049.42 471.948C1046.66 473.228 1043.46 473.183 1040.74 471.825L1024.54 463.741C1021.14 462.049 1019 458.584 1019 454.793Z" fill="url('#paint51_linear_289_385')" fill-opacity="0.5"></path>
<path d="M462 370.793V357.18C462 353.389 464.144 349.924 467.537 348.232L483.743 340.148C486.465 338.791 489.656 338.745 492.415 340.026L510.262 348.306C513.794 349.945 516.053 353.484 516.053 357.377V370.596C516.053 374.489 513.794 378.028 510.262 379.667L492.415 387.948C489.656 389.228 486.465 389.183 483.743 387.825L467.537 379.741C464.144 378.049 462 374.584 462 370.793Z" fill="url('#paint52_linear_289_385')" fill-opacity="0.5"></path>
<path d="M1182.53 588.018V574.406C1182.53 570.615 1184.67 567.149 1188.07 565.457L1204.27 557.374C1206.99 556.016 1210.19 555.971 1212.94 557.251L1230.79 565.532C1234.32 567.17 1236.58 570.71 1236.58 574.603V587.821C1236.58 591.714 1234.32 595.254 1230.79 596.892L1212.94 605.173C1210.19 606.453 1206.99 606.408 1204.27 605.051L1188.07 596.967C1184.67 595.275 1182.53 591.81 1182.53 588.018Z" fill="url('#paint53_linear_289_385')" fill-opacity="0.5"></path>
<path d="M233.16 912.331V879.149C233.16 875.556 235.087 872.239 238.209 870.46L267.695 853.657C270.669 851.962 274.304 851.907 277.329 853.51L309.415 870.519C312.686 872.253 314.731 875.652 314.731 879.355V912.125C314.731 915.827 312.686 919.226 309.415 920.96L277.329 937.969C274.304 939.573 270.669 939.517 267.695 937.822L238.209 921.019C235.087 919.24 233.16 915.924 233.16 912.331Z" fill="url('#paint54_linear_289_385')" fill-opacity="0.5"></path>
<path d="M338.318 912.331V879.149C338.318 875.556 340.246 872.239 343.367 870.46L372.853 853.657C375.827 851.962 379.463 851.907 382.488 853.51L414.573 870.519C417.844 872.253 419.889 875.652 419.889 879.355V912.125C419.889 915.827 417.844 919.226 414.573 920.96L382.488 937.969C379.463 939.573 375.827 939.517 372.853 937.822L343.367 921.019C340.246 919.24 338.318 915.924 338.318 912.331Z" fill="url('#paint55_linear_289_385')" fill-opacity="0.5"></path>
<path d="M443.476 912.331V879.149C443.476 875.556 445.403 872.239 448.524 870.46L478.01 853.657C480.985 851.962 484.62 851.907 487.645 853.51L519.73 870.519C523.001 872.253 525.047 875.652 525.047 879.355V912.125C525.047 915.827 523.001 919.226 519.73 920.96L487.645 937.969C484.62 939.573 480.985 939.517 478.01 937.822L448.524 921.019C445.403 919.24 443.476 915.924 443.476 912.331Z" fill="url('#paint56_linear_289_385')" fill-opacity="0.5"></path>
<path d="M548.634 912.331V879.149C548.634 875.556 550.561 872.239 553.683 870.46L583.168 853.657C586.143 851.962 589.778 851.907 592.803 853.51L624.889 870.519C628.16 872.253 630.205 875.652 630.205 879.355V912.125C630.205 915.827 628.159 919.226 624.889 920.96L592.803 937.969C589.778 939.573 586.143 939.517 583.168 937.822L553.683 921.019C550.561 919.24 548.634 915.924 548.634 912.331Z" fill="url('#paint57_linear_289_385')" fill-opacity="0.5"></path>
<path d="M653.793 912.331V879.149C653.793 875.556 655.72 872.239 658.842 870.46L688.327 853.657C691.302 851.962 694.937 851.907 697.962 853.51L730.048 870.519C733.319 872.253 735.364 875.652 735.364 879.355V912.125C735.364 915.827 733.319 919.226 730.048 920.96L697.962 937.969C694.937 939.573 691.302 939.517 688.327 937.822L658.842 921.019C655.72 919.24 653.793 915.924 653.793 912.331Z" fill="url('#paint58_linear_289_385')" fill-opacity="0.5"></path>
<path d="M758.949 912.331V879.149C758.949 875.556 760.877 872.239 763.998 870.46L793.484 853.657C796.458 851.962 800.093 851.907 803.118 853.51L835.204 870.519C838.475 872.253 840.52 875.652 840.52 879.355V912.125C840.52 915.827 838.475 919.226 835.204 920.96L803.118 937.969C800.093 939.573 796.458 939.517 793.484 937.822L763.998 921.019C760.877 919.24 758.949 915.924 758.949 912.331Z" fill="url('#paint59_linear_289_385')" fill-opacity="0.5"></path>
<path d="M864.107 912.331V879.149C864.107 875.556 866.035 872.239 869.156 870.46L898.642 853.657C901.616 851.962 905.252 851.907 908.277 853.51L940.362 870.519C943.633 872.253 945.678 875.652 945.678 879.355V912.125C945.678 915.827 943.633 919.226 940.362 920.96L908.277 937.969C905.252 939.573 901.616 939.517 898.642 937.822L869.156 921.019C866.035 919.24 864.107 915.924 864.107 912.331Z" fill="url('#paint60_linear_289_385')" fill-opacity="0.5"></path>
<path d="M969.266 912.331V879.149C969.266 875.556 971.193 872.239 974.314 870.46L1003.8 853.657C1006.77 851.962 1010.41 851.907 1013.43 853.51L1045.52 870.519C1048.79 872.253 1050.84 875.652 1050.84 879.355V912.125C1050.84 915.827 1048.79 919.226 1045.52 920.96L1013.43 937.969C1010.41 939.573 1006.77 939.517 1003.8 937.822L974.314 921.019C971.193 919.24 969.266 915.924 969.266 912.331Z" fill="url('#paint61_linear_289_385')" fill-opacity="0.5"></path>
<path d="M1074.42 912.331V879.149C1074.42 875.556 1076.35 872.239 1079.47 870.46L1108.96 853.657C1111.93 851.962 1115.57 851.907 1118.59 853.51L1150.68 870.519C1153.95 872.253 1155.99 875.652 1155.99 879.355V912.125C1155.99 915.827 1153.95 919.226 1150.68 920.96L1118.59 937.969C1115.57 939.573 1111.93 939.517 1108.96 937.822L1079.47 921.019C1076.35 919.24 1074.42 915.924 1074.42 912.331Z" fill="url('#paint62_linear_289_385')" fill-opacity="0.5"></path>
<path d="M1179.58 912.331V879.149C1179.58 875.556 1181.51 872.239 1184.63 870.46L1214.12 853.657C1217.09 851.962 1220.73 851.907 1223.75 853.51L1255.84 870.519C1259.11 872.253 1261.15 875.652 1261.15 879.355V912.125C1261.15 915.827 1259.11 919.226 1255.84 920.96L1223.75 937.969C1220.73 939.573 1217.09 939.517 1214.12 937.822L1184.63 921.019C1181.51 919.24 1179.58 915.924 1179.58 912.331Z" fill="url('#paint63_linear_289_385')" fill-opacity="0.5"></path>
<path d="M1284.74 912.331V879.149C1284.74 875.556 1286.67 872.239 1289.79 870.46L1319.27 853.657C1322.25 851.962 1325.88 851.907 1328.91 853.51L1360.99 870.519C1364.26 872.253 1366.31 875.652 1366.31 879.355V912.125C1366.31 915.827 1364.26 919.226 1360.99 920.96L1328.91 937.969C1325.88 939.573 1322.25 939.517 1319.27 937.822L1289.79 921.019C1286.67 919.24 1284.74 915.924 1284.74 912.331Z" fill="url('#paint64_linear_289_385')" fill-opacity="0.5"></path>
<path d="M1389.9 912.331V879.149C1389.9 875.556 1391.82 872.239 1394.95 870.46L1424.43 853.657C1427.41 851.962 1431.04 851.907 1434.07 853.51L1466.15 870.519C1469.42 872.253 1471.47 875.652 1471.47 879.355V912.125C1471.47 915.827 1469.42 919.226 1466.15 920.96L1434.07 937.969C1431.04 939.573 1427.41 939.517 1424.43 937.822L1394.95 921.019C1391.82 919.24 1389.9 915.924 1389.9 912.331Z" fill="url('#paint65_linear_289_385')" fill-opacity="0.5"></path>
<path d="M1495.05 912.331V879.149C1495.05 875.556 1496.98 872.239 1500.1 870.46L1529.59 853.657C1532.56 851.962 1536.2 851.907 1539.22 853.51L1571.31 870.519C1574.58 872.253 1576.63 875.652 1576.63 879.355V912.125C1576.63 915.827 1574.58 919.226 1571.31 920.96L1539.22 937.969C1536.2 939.573 1532.56 939.517 1529.59 937.822L1500.1 921.019C1496.98 919.24 1495.05 915.924 1495.05 912.331Z" fill="url('#paint66_linear_289_385')" fill-opacity="0.5"></path>
<path d="M1612.01 908.747V875.564C1612.01 871.971 1613.94 868.655 1617.06 866.876L1646.54 850.073C1649.52 848.378 1653.15 848.322 1656.18 849.926L1688.26 866.935C1691.53 868.669 1693.58 872.068 1693.58 875.77V908.541C1693.58 912.243 1691.53 915.642 1688.26 917.376L1656.18 934.385C1653.15 935.988 1649.52 935.933 1646.54 934.238L1617.06 917.435C1613.94 915.656 1612.01 912.339 1612.01 908.747Z" fill="url('#paint67_linear_289_385')" fill-opacity="0.5"></path>
<path d="M1654.27 1001.94V968.758C1654.27 965.165 1656.19 961.848 1659.31 960.069L1678.63 949.064C1685.29 945.265 1693.58 950.08 1693.58 957.753V1012.94C1693.58 1020.62 1685.29 1025.43 1678.63 1021.63L1659.31 1010.63C1656.19 1008.85 1654.27 1005.53 1654.27 1001.94Z" fill="url('#paint68_linear_289_385')" fill-opacity="0.5"></path>
<path d="M53.3115 968.758V1001.94C53.3115 1005.53 51.3842 1008.85 48.2627 1010.63L28.9513 1021.63C22.2848 1025.43 14.0002 1020.62 14.0002 1012.94V957.753C14.0002 950.08 22.2848 945.265 28.9513 949.064L48.2627 960.069C51.3842 961.848 53.3115 965.165 53.3115 968.758Z" fill="url('#paint69_linear_289_385')" fill-opacity="0.5"></path>
<path d="M1294.21 994.653C1294.23 993.171 1295.81 992.154 1294.89 992.112C1293.97 992.07 1293.21 993.605 1293.19 994.778C1293.17 995.951 1293.9 997.555 1294.82 997.597C1295.73 997.639 1294.19 996.248 1294.21 994.653Z" fill="#3A3637" fill-opacity="0.5"></path>
<path d="M1288 999.474C1286.43 999.226 1285.07 1000.49 1285.19 999.638C1285.31 998.791 1287.07 998.367 1288.31 998.562C1289.56 998.758 1291.12 999.707 1291 1000.55C1290.88 1001.4 1289.69 999.742 1288 999.474Z" fill="#3A3637" fill-opacity="0.5"></path>
<ellipse cx="1.3311" cy="3.51666" rx="1.3311" ry="3.51666" transform="matrix(0.778662 -0.604228 0.678292 0.755693 1318.05 1029.36)" fill="#3A3637" fill-opacity="0.5"></ellipse>
<path d="M1318.52 1011.48C1324.25 1017.87 1323.59 1027.46 1320.71 1029.7C1317.82 1031.94 1306.88 1030.27 1301.15 1023.88C1295.41 1017.49 1297.05 1008.8 1299.93 1006.56C1302.82 1004.31 1312.78 1005.09 1318.52 1011.48Z" fill="#FBA30F" fill-opacity="0.5"></path>
<path d="M1314.57 1008.25L1306.56 1014.46L1298.84 1020.46C1296.33 1015.31 1296.98 1008.85 1299.87 1006.61C1302.76 1004.37 1310.86 1005.57 1314.57 1008.25Z" fill="#3A3637" fill-opacity="0.5"></path>
<ellipse cx="6.71738" cy="6.81484" rx="6.71738" ry="6.81484" transform="matrix(0.778662 -0.604228 0.678292 0.755693 1287.38 1002.45)" fill="#FBA30F" fill-opacity="0.5"></ellipse>
<path d="M1304.6 1026.88L1320.64 1014.43C1320.64 1014.43 1321.06 1015.18 1321.29 1015.68C1321.7 1016.56 1321.85 1017.07 1322.13 1017.99C1322.31 1018.59 1322.4 1018.93 1322.53 1019.55C1322.7 1020.38 1322.82 1021.7 1322.82 1021.7L1312.01 1030.09C1312.01 1030.09 1310.75 1029.8 1309.88 1029.48C1309.11 1029.2 1308.66 1029 1307.92 1028.67C1307.34 1028.42 1306.9 1028.19 1306.35 1027.91C1305.64 1027.54 1304.6 1026.88 1304.6 1026.88Z" fill="#3A3637" fill-opacity="0.5"></path>
<g filter="url('#filter0_d_289_385')">
<path d="M1292.94 1017.03C1293.98 1010.27 1305.49 1011.16 1305.68 1018.03C1305.69 1018.42 1305.67 1018.81 1305.61 1019.19C1304.77 1024.66 1301.26 1028.6 1297.76 1028.01C1294.26 1027.41 1292.1 1022.5 1292.94 1017.03Z" fill="#D9D9D9" fill-opacity="0.5" shape-rendering="crispEdges"></path>
<path d="M1293.45 1017.12C1293.92 1014.05 1296.76 1012.68 1299.61 1012.9C1302.45 1013.12 1305.08 1014.91 1305.16 1018.02C1305.17 1018.39 1305.15 1018.75 1305.1 1019.1C1304.69 1021.76 1303.63 1024.03 1302.28 1025.55C1300.92 1027.08 1299.33 1027.79 1297.83 1027.53C1296.34 1027.28 1295.04 1026.08 1294.2 1024.18C1293.37 1022.29 1293.05 1019.78 1293.45 1017.12Z" stroke="#3A3637" stroke-opacity="0.5" shape-rendering="crispEdges"></path>
</g>
<g filter="url('#filter1_d_289_385')">
<path d="M1311.77 1013.65C1304.51 1012.22 1304.17 1001.33 1311.42 1001.63C1311.82 1001.65 1312.23 1001.69 1312.63 1001.77C1318.53 1002.93 1323.12 1006.53 1322.89 1009.81C1322.65 1013.09 1317.67 1014.81 1311.77 1013.65Z" fill="#D9D9D9" fill-opacity="0.5" shape-rendering="crispEdges"></path>
<path d="M1311.81 1013.17C1308.51 1012.52 1306.75 1009.73 1306.67 1007.04C1306.58 1004.36 1308.18 1001.98 1311.46 1002.12C1311.84 1002.14 1312.22 1002.18 1312.6 1002.25C1315.47 1002.82 1318.01 1003.97 1319.77 1005.36C1321.55 1006.75 1322.48 1008.31 1322.38 1009.71C1322.27 1011.11 1321.15 1012.26 1319.22 1012.93C1317.31 1013.59 1314.68 1013.73 1311.81 1013.17Z" stroke="#3A3637" stroke-opacity="0.5" shape-rendering="crispEdges"></path>
</g>
<path d="M1292.78 1004.49C1293.06 1005.96 1294.8 1006.84 1293.9 1006.96C1293 1007.08 1291.97 1005.62 1291.75 1004.46C1291.53 1003.29 1291.96 1001.64 1292.86 1001.52C1293.77 1001.4 1292.48 1002.91 1292.78 1004.49Z" fill="#3A3637" fill-opacity="0.5"></path>
<path d="M855.196 307.369C855.214 305.887 856.79 304.87 855.872 304.828C854.954 304.786 854.19 306.321 854.174 307.494C854.159 308.667 854.883 310.271 855.801 310.313C856.718 310.355 855.176 308.964 855.196 307.369Z" fill="#3A3637" fill-opacity="0.5"></path>
<path d="M848.981 312.19C847.41 311.942 846.052 313.201 846.172 312.354C846.291 311.507 848.053 311.082 849.297 311.278C850.541 311.474 852.108 312.423 851.989 313.27C851.869 314.117 850.673 312.458 848.981 312.19Z" fill="#3A3637" fill-opacity="0.5"></path>
<ellipse cx="1.3311" cy="3.51666" rx="1.3311" ry="3.51666" transform="matrix(0.778662 -0.604228 0.678292 0.755693 879.037 342.075)" fill="#3A3637" fill-opacity="0.5"></ellipse>
<path d="M879.502 324.197C885.238 330.588 884.579 340.171 881.69 342.413C878.801 344.655 867.868 342.989 862.132 336.599C856.396 330.208 858.03 321.513 860.919 319.272C863.808 317.03 873.767 317.807 879.502 324.197Z" fill="#FBA30F" fill-opacity="0.5"></path>
<path d="M875.55 320.969L867.548 327.178L859.824 333.173C857.319 328.025 857.964 321.567 860.852 319.326C863.741 317.084 871.846 318.283 875.55 320.969Z" fill="#3A3637" fill-opacity="0.5"></path>
<ellipse cx="6.71738" cy="6.81484" rx="6.71738" ry="6.81484" transform="matrix(0.778662 -0.604228 0.678292 0.755693 848.367 315.171)" fill="#FBA30F" fill-opacity="0.5"></ellipse>
<path d="M865.586 339.593L881.624 327.148C881.624 327.148 882.047 327.901 882.277 328.4C882.681 329.273 882.838 329.79 883.111 330.703C883.291 331.308 883.387 331.649 883.512 332.264C883.684 333.099 883.803 334.421 883.803 334.421L872.996 342.807C872.996 342.807 871.73 342.515 870.86 342.195C870.098 341.915 869.642 341.718 868.902 341.389C868.329 341.134 867.888 340.908 867.332 340.621C866.622 340.255 865.586 339.593 865.586 339.593Z" fill="#3A3637" fill-opacity="0.5"></path>
<g filter="url('#filter2_d_289_385')">
<path d="M853.926 329.75C854.961 322.99 866.479 323.873 866.664 330.744C866.675 331.133 866.653 331.521 866.594 331.906C865.757 337.371 862.242 341.319 858.744 340.724C855.246 340.129 853.089 335.216 853.926 329.75V329.75Z" fill="#D9D9D9" fill-opacity="0.5" shape-rendering="crispEdges"></path>
<path d="M866.148 330.737C866.157 331.101 866.137 331.462 866.083 331.819C865.675 334.481 864.618 336.75 863.265 338.269C861.904 339.798 860.314 340.503 858.817 340.248C857.32 339.994 856.021 338.797 855.186 336.895C854.356 335.004 854.03 332.499 854.437 329.837C854.907 326.768 857.746 325.397 860.591 325.617C863.435 325.837 866.064 327.627 866.148 330.737Z" stroke="#3A3637" stroke-opacity="0.5" shape-rendering="crispEdges"></path>
</g>
<g filter="url('#filter3_d_289_385')">
<path d="M872.758 326.362C865.498 324.936 865.155 314.045 872.4 314.346C872.804 314.363 873.211 314.409 873.619 314.489C879.518 315.648 884.108 319.246 883.87 322.524C883.632 325.803 878.657 327.521 872.758 326.362V326.362Z" fill="#D9D9D9" fill-opacity="0.5" shape-rendering="crispEdges"></path>
<path d="M872.448 314.837C872.827 314.853 873.206 314.896 873.584 314.97C876.459 315.535 878.99 316.69 880.758 318.076C882.537 319.47 883.462 321.025 883.361 322.424C883.259 323.823 882.137 324.976 880.209 325.642C878.293 326.304 875.667 326.446 872.793 325.881C869.494 325.233 867.732 322.444 867.65 319.759C867.568 317.076 869.167 314.7 872.448 314.837Z" stroke="#3A3637" stroke-opacity="0.5" shape-rendering="crispEdges"></path>
</g>
<path d="M853.767 317.211C854.047 318.68 855.789 319.554 854.886 319.674C853.982 319.795 852.953 318.336 852.731 317.174C852.51 316.011 852.945 314.357 853.849 314.237C854.752 314.116 853.466 315.629 853.767 317.211Z" fill="#3A3637" fill-opacity="0.5"></path>
<path d="M406.636 925.468C406.9 926.929 405.544 928.19 406.455 928.08C407.366 927.97 407.826 926.333 407.617 925.176C407.408 924.019 406.39 922.56 405.479 922.67C404.568 922.78 406.351 923.894 406.636 925.468Z" fill="#3A3637" fill-opacity="0.5"></path>
<path d="M411.831 919.698C413.424 919.683 414.52 918.22 414.564 919.073C414.608 919.927 412.955 920.635 411.694 920.647C410.432 920.66 408.709 919.984 408.665 919.131C408.621 918.277 410.114 919.714 411.831 919.698Z" fill="#3A3637" fill-opacity="0.5"></path>
<ellipse cx="1.32118" cy="3.54499" rx="1.32118" ry="3.54499" transform="matrix(-0.655964 0.728475 -0.805187 -0.62682 376.553 895.243)" fill="#3A3637" fill-opacity="0.5"></ellipse>
<path d="M379.503 912.914C372.64 907.571 371.461 898.03 373.876 895.348C376.292 892.665 387.369 892.502 394.233 897.845C401.097 903.188 401.147 912.015 398.732 914.697C396.316 917.379 386.367 918.257 379.503 912.914Z" fill="#FBA30F" fill-opacity="0.5"></path>
<path d="M384.013 915.439L390.704 908.008L397.163 900.836C400.61 905.489 401.207 911.95 398.791 914.633C396.376 917.315 388.17 917.471 384.013 915.439Z" fill="#3A3637" fill-opacity="0.5"></path>
<ellipse cx="6.66732" cy="6.86974" rx="6.66732" ry="6.86974" transform="matrix(-0.655964 0.728475 -0.805187 -0.62682 411.871 916.663)" fill="#FBA30F" fill-opacity="0.5"></ellipse>
<path d="M390.266 895.467L376.855 910.359C376.855 910.359 376.296 909.688 375.974 909.235C375.41 908.442 375.156 907.96 374.714 907.106C374.421 906.541 374.262 906.22 374.021 905.636C373.693 904.842 373.324 903.561 373.324 903.561L382.36 893.526C382.36 893.526 383.661 893.604 384.579 893.776C385.382 893.926 385.868 894.044 386.66 894.247C387.272 894.403 387.75 894.552 388.352 894.743C389.12 894.986 390.266 895.467 390.266 895.467Z" fill="#3A3637" fill-opacity="0.5"></path>
<g filter="url('#filter4_d_289_385')">
<path d="M403.616 903.231C403.887 910.062 392.39 911.095 390.892 904.358C390.807 903.975 390.754 903.589 390.738 903.199C390.52 897.682 393.225 893.217 396.782 893.226C400.338 893.235 403.398 897.715 403.616 903.231Z" fill="#D9D9D9" fill-opacity="0.5" shape-rendering="crispEdges"></path>
<path d="M403.097 903.23C403.22 906.331 400.689 908.151 397.847 908.404C395.007 908.657 392.079 907.329 391.4 904.279C391.321 903.921 391.272 903.561 391.257 903.2C391.151 900.514 391.758 898.106 392.8 896.388C393.847 894.659 395.278 893.703 396.801 893.707C398.323 893.71 399.83 894.674 401.015 896.408C402.192 898.132 402.991 900.543 403.097 903.23Z" stroke="#3A3637" stroke-opacity="0.5" shape-rendering="crispEdges"></path>
</g>
<g filter="url('#filter5_d_289_385')">
<path d="M385.728 909.671C393.14 909.878 395.553 920.543 388.369 921.438C387.969 921.488 387.56 921.51 387.145 921.498C381.118 921.33 375.915 918.547 375.524 915.281C375.133 912.015 379.701 909.504 385.728 909.671Z" fill="#D9D9D9" fill-opacity="0.5" shape-rendering="crispEdges"></path>
<path d="M385.786 910.15C389.153 910.244 391.418 912.7 392.011 915.329C392.603 917.956 391.483 920.558 388.229 920.963C387.854 921.01 387.473 921.03 387.088 921.019C384.15 920.937 381.439 920.218 379.435 919.146C377.418 918.067 376.21 916.689 376.043 915.295C375.876 913.902 376.761 912.582 378.532 911.609C380.292 910.641 382.848 910.068 385.786 910.15Z" stroke="#3A3637" stroke-opacity="0.5" shape-rendering="crispEdges"></path>
</g>
<path d="M406.165 915.546C405.61 914.146 403.729 913.574 404.595 913.306C405.461 913.038 406.752 914.304 407.192 915.412C407.632 916.519 407.519 918.219 406.652 918.486C405.786 918.754 406.763 917.053 406.165 915.546Z" fill="#3A3637" fill-opacity="0.5"></path>
<path d="M511.84 563.337C511.915 564.817 510.407 565.918 511.326 565.91C512.245 565.902 512.911 564.328 512.852 563.156C512.793 561.984 511.969 560.423 511.05 560.431C510.131 560.439 511.759 561.743 511.84 563.337Z" fill="#3A3637" fill-opacity="0.5"></path>
<path d="M517.736 558.184C519.32 558.345 520.595 557.014 520.53 557.866C520.464 558.718 518.732 559.239 517.478 559.111C516.224 558.984 514.599 558.122 514.665 557.27C514.731 556.418 516.03 558.009 517.736 558.184Z" fill="#3A3637" fill-opacity="0.5"></path>
<ellipse cx="1.30642" cy="3.58634" rx="1.30642" ry="3.58634" transform="matrix(-0.753017 0.658001 -0.710875 -0.703318 485.843 529.996)" fill="#3A3637" fill-opacity="0.5"></ellipse>
<path d="M486.51 547.868C480.38 541.803 480.431 532.199 483.173 529.804C485.915 527.408 496.935 528.472 503.065 534.538C509.196 540.603 508.115 549.372 505.373 551.768C502.632 554.164 492.641 553.933 486.51 547.868Z" fill="#FBA30F" fill-opacity="0.5"></path>
<path d="M490.663 550.874L498.257 544.238L505.589 537.831C508.416 542.833 508.181 549.314 505.439 551.71C502.697 554.106 494.53 553.353 490.663 550.874Z" fill="#3A3637" fill-opacity="0.5"></path>
<ellipse cx="6.59284" cy="6.94988" rx="6.59284" ry="6.94988" transform="matrix(-0.753017 0.658001 -0.710875 -0.703318 518.165 555.174)" fill="#FBA30F" fill-opacity="0.5"></ellipse>
<path d="M499.429 531.737L484.206 545.038C484.206 545.038 483.736 544.31 483.475 543.825C483.017 542.975 482.827 542.468 482.497 541.571C482.279 540.977 482.162 540.642 481.997 540.035C481.773 539.21 481.571 537.898 481.571 537.898L491.828 528.934C491.828 528.934 493.11 529.156 493.999 529.428C494.777 529.666 495.245 529.838 496.005 530.126C496.593 530.349 497.048 530.55 497.621 530.806C498.353 531.132 499.429 531.737 499.429 531.737Z" fill="#3A3637" fill-opacity="0.5"></path>
<g filter="url('#filter6_d_289_385')">
<path d="M511.69 540.925C511.082 547.746 499.543 547.504 498.912 540.64C498.876 540.249 498.872 539.857 498.907 539.466C499.397 533.965 502.655 529.831 506.185 530.234C509.715 530.636 512.179 535.423 511.69 540.925Z" fill="#D9D9D9" fill-opacity="0.5" shape-rendering="crispEdges"></path>
<path d="M511.175 540.866C510.9 543.962 508.156 545.493 505.302 545.431C502.449 545.37 499.711 543.724 499.426 540.617C499.392 540.251 499.389 539.887 499.421 539.525C499.66 536.846 500.571 534.523 501.825 532.933C503.086 531.333 504.63 530.541 506.142 530.713C507.655 530.886 509.028 532.011 509.981 533.863C510.93 535.705 511.414 538.187 511.175 540.866Z" stroke="#3A3637" stroke-opacity="0.5" shape-rendering="crispEdges"></path>
</g>
<g filter="url('#filter7_d_289_385')">
<path d="M493.105 545.338C500.43 546.362 501.457 557.224 494.216 557.313C493.813 557.318 493.406 557.294 492.997 557.237C487.034 556.403 482.225 553.063 482.255 549.777C482.284 546.491 487.142 544.504 493.105 545.338Z" fill="#D9D9D9" fill-opacity="0.5" shape-rendering="crispEdges"></path>
<path d="M493.1 545.819C496.43 546.285 498.362 548.975 498.612 551.652C498.862 554.326 497.418 556.786 494.138 556.827C493.761 556.831 493.381 556.809 493.001 556.756C490.095 556.349 487.494 555.334 485.641 554.048C483.776 552.753 482.754 551.251 482.767 549.849C482.78 548.447 483.827 547.235 485.71 546.464C487.582 545.698 490.194 545.413 493.1 545.819Z" stroke="#3A3637" stroke-opacity="0.5" shape-rendering="crispEdges"></path>
</g>
<path d="M512.642 553.434C512.27 551.983 510.475 551.205 511.37 551.036C512.264 550.866 513.384 552.265 513.678 553.414C513.973 554.563 513.643 556.237 512.749 556.407C511.855 556.577 513.043 554.996 512.642 553.434Z" fill="#3A3637" fill-opacity="0.5"></path>
<path d="M1528.84 200.337C1528.92 201.817 1527.41 202.919 1528.33 202.91C1529.25 202.902 1529.91 201.328 1529.85 200.156C1529.79 198.984 1528.97 197.423 1528.05 197.431C1527.13 197.439 1528.76 198.743 1528.84 200.337Z" fill="#3A3637" fill-opacity="0.5"></path>
<path d="M1534.74 195.184C1536.32 195.345 1537.6 194.014 1537.53 194.866C1537.46 195.718 1535.73 196.239 1534.48 196.111C1533.23 195.984 1531.6 195.122 1531.67 194.27C1531.73 193.418 1533.03 195.009 1534.74 195.184Z" fill="#3A3637" fill-opacity="0.5"></path>
<ellipse cx="1.30642" cy="3.58634" rx="1.30642" ry="3.58634" transform="matrix(-0.753017 0.658001 -0.710875 -0.703318 1502.84 166.996)" fill="#3A3637" fill-opacity="0.5"></ellipse>
<path d="M1503.51 184.868C1497.38 178.803 1497.43 169.2 1500.17 166.804C1502.91 164.408 1513.93 165.472 1520.06 171.538C1526.19 177.603 1525.11 186.372 1522.37 188.768C1519.63 191.164 1509.64 190.933 1503.51 184.868Z" fill="#FBA30F" fill-opacity="0.5"></path>
<path d="M1507.66 187.874L1515.26 181.238L1522.59 174.831C1525.41 179.833 1525.18 186.314 1522.44 188.71C1519.7 191.106 1511.53 190.353 1507.66 187.874Z" fill="#3A3637" fill-opacity="0.5"></path>
<ellipse cx="6.59284" cy="6.94988" rx="6.59284" ry="6.94988" transform="matrix(-0.753017 0.658001 -0.710875 -0.703318 1535.16 192.174)" fill="#FBA30F" fill-opacity="0.5"></ellipse>
<path d="M1516.43 168.737L1501.21 182.039C1501.21 182.039 1500.74 181.31 1500.47 180.825C1500.02 179.975 1499.83 179.468 1499.5 178.571C1499.28 177.977 1499.16 177.642 1499 177.035C1498.77 176.21 1498.57 174.898 1498.57 174.898L1508.83 165.934C1508.83 165.934 1510.11 166.156 1511 166.428C1511.78 166.666 1512.24 166.838 1513 167.126C1513.59 167.349 1514.05 167.55 1514.62 167.806C1515.35 168.133 1516.43 168.737 1516.43 168.737Z" fill="#3A3637" fill-opacity="0.5"></path>
<g filter="url('#filter8_d_289_385')">
<path d="M1528.69 177.925C1528.08 184.746 1516.54 184.505 1515.91 177.64C1515.88 177.249 1515.87 176.857 1515.91 176.467C1516.4 170.965 1519.66 166.831 1523.18 167.234C1526.71 167.637 1529.18 172.423 1528.69 177.925V177.925Z" fill="#D9D9D9" fill-opacity="0.5" shape-rendering="crispEdges"></path>
<path d="M1516.43 177.617C1516.39 177.251 1516.39 176.887 1516.42 176.525C1516.66 173.846 1517.57 171.524 1518.83 169.933C1520.09 168.333 1521.63 167.541 1523.14 167.714C1524.65 167.886 1526.03 169.011 1526.98 170.863C1527.93 172.705 1528.41 175.187 1528.18 177.866C1527.9 180.963 1525.16 182.493 1522.3 182.431C1519.45 182.37 1516.71 180.725 1516.43 177.617Z" stroke="#3A3637" stroke-opacity="0.5" shape-rendering="crispEdges"></path>
</g>
<g filter="url('#filter9_d_289_385')">
<path d="M1510.1 182.338C1517.43 183.362 1518.46 194.224 1511.22 194.313C1510.81 194.318 1510.41 194.294 1510 194.237C1504.03 193.403 1499.22 190.063 1499.25 186.777C1499.28 183.492 1504.14 181.504 1510.1 182.338V182.338Z" fill="#D9D9D9" fill-opacity="0.5" shape-rendering="crispEdges"></path>
<path d="M1511.14 193.827C1510.76 193.831 1510.38 193.809 1510 193.756C1507.09 193.349 1504.49 192.334 1502.64 191.048C1500.78 189.753 1499.75 188.251 1499.77 186.849C1499.78 185.447 1500.83 184.235 1502.71 183.464C1504.58 182.699 1507.19 182.413 1510.1 182.819C1513.43 183.285 1515.36 185.975 1515.61 188.652C1515.86 191.326 1514.42 193.786 1511.14 193.827Z" stroke="#3A3637" stroke-opacity="0.5" shape-rendering="crispEdges"></path>
</g>
<path d="M1529.64 190.434C1529.27 188.983 1527.47 188.205 1528.37 188.036C1529.26 187.866 1530.38 189.265 1530.68 190.414C1530.97 191.563 1530.64 193.237 1529.75 193.407C1528.85 193.577 1530.04 191.996 1529.64 190.434Z" fill="#3A3637" fill-opacity="0.5"></path>
<path d="M1052.53 622.999C1053.46 621.793 1055.37 621.795 1054.65 621.273C1053.92 620.75 1052.35 621.605 1051.61 622.559C1050.88 623.514 1050.49 625.215 1051.22 625.737C1051.94 626.259 1051.53 624.298 1052.53 622.999Z" fill="#3A3637" fill-opacity="0.5"></path>
<path d="M1044.47 623.656C1043.33 622.618 1041.44 622.931 1042.06 622.299C1042.68 621.667 1044.39 622.254 1045.29 623.075C1046.19 623.897 1046.89 625.508 1046.27 626.14C1045.65 626.772 1045.69 624.774 1044.47 623.656Z" fill="#3A3637" fill-opacity="0.5"></path>
<ellipse cx="1.30933" cy="3.57826" rx="1.30933" ry="3.57826" transform="matrix(1.02712 -0.0837601 0.0908972 0.963645 1050.78 664.148)" fill="#3A3637" fill-opacity="0.5"></ellipse>
<path d="M1062.14 649.722C1062.92 658.013 1056.49 665.529 1052.75 665.835C1049 666.141 1041.05 658.966 1040.27 650.675C1039.48 642.383 1046.17 636.115 1049.91 635.809C1053.66 635.503 1061.36 641.43 1062.14 649.722Z" fill="#FBA30F" fill-opacity="0.5"></path>
<path d="M1060.88 644.971L1050.5 645.818L1040.47 646.635C1041.58 641.08 1046.08 636.122 1049.82 635.816C1053.57 635.511 1059.49 640.8 1060.88 644.971Z" fill="#3A3637" fill-opacity="0.5"></path>
<ellipse cx="6.60753" cy="6.93421" rx="6.60753" ry="6.93421" transform="matrix(1.02712 -0.0837601 0.0908972 0.963645 1042.13 625.775)" fill="#FBA30F" fill-opacity="0.5"></ellipse>
<path d="M1041.26 654.966L1062.07 653.269C1062.07 653.269 1061.95 654.112 1061.84 654.644C1061.63 655.575 1061.44 656.083 1061.11 656.977C1060.88 657.569 1060.75 657.9 1060.48 658.471C1060.1 659.248 1059.39 660.396 1059.39 660.396L1045.37 661.54C1045.37 661.54 1044.51 660.628 1043.99 659.903C1043.54 659.269 1043.28 658.865 1042.88 658.201C1042.56 657.688 1042.34 657.268 1042.06 656.737C1041.7 656.06 1041.26 654.966 1041.26 654.966Z" fill="#3A3637" fill-opacity="0.5"></path>
<g filter="url('#filter10_d_289_385')">
<path d="M1037.74 640.695C1042.75 635.686 1051.66 642.514 1047.59 648.268C1047.35 648.596 1047.1 648.906 1046.81 649.192C1042.76 653.234 1037.45 654.608 1034.95 652.261C1032.44 649.915 1033.69 644.736 1037.74 640.695Z" fill="#D9D9D9" fill-opacity="0.5" shape-rendering="crispEdges"></path>
<path d="M1038.1 641.037C1040.38 638.763 1043.55 639.139 1045.75 640.829C1047.95 642.519 1049.01 645.386 1047.17 647.991C1046.95 648.297 1046.71 648.585 1046.44 648.85C1044.47 650.818 1042.21 652.119 1040.17 652.648C1038.11 653.18 1036.38 652.914 1035.3 651.909C1034.23 650.903 1033.9 649.23 1034.38 647.226C1034.86 645.233 1036.13 643.005 1038.1 641.037Z" stroke="#3A3637" stroke-opacity="0.5" shape-rendering="crispEdges"></path>
</g>
<g filter="url('#filter11_d_289_385')">
<path d="M1055.28 647.917C1050.2 642.898 1056.62 633.773 1062.37 637.867C1062.69 638.095 1062.99 638.348 1063.28 638.629C1067.41 642.713 1068.97 648.104 1066.76 650.668C1064.55 653.233 1059.41 652.001 1055.28 647.917Z" fill="#D9D9D9" fill-opacity="0.5" shape-rendering="crispEdges"></path>
<path d="M1055.6 647.541C1053.29 645.26 1053.57 642.035 1055.15 639.788C1056.73 637.542 1059.5 636.44 1062.11 638.295C1062.41 638.508 1062.69 638.744 1062.95 639.005C1064.97 640.996 1066.34 643.288 1066.94 645.365C1067.54 647.455 1067.34 649.223 1066.4 650.317C1065.46 651.412 1063.83 651.762 1061.84 651.284C1059.86 650.809 1057.61 649.532 1055.6 647.541Z" stroke="#3A3637" stroke-opacity="0.5" shape-rendering="crispEdges"></path>
</g>
<path d="M1045.31 630.318C1044.64 631.672 1045.53 633.315 1044.71 632.934C1043.9 632.553 1043.95 630.81 1044.48 629.738C1045.01 628.665 1046.39 627.539 1047.2 627.92C1048.02 628.301 1046.03 628.86 1045.31 630.318Z" fill="#3A3637" fill-opacity="0.5"></path>
<path d="M924.041 901.692C922.667 902.443 920.917 901.713 921.352 902.466C921.787 903.218 923.596 903.035 924.684 902.441C925.772 901.848 926.876 900.444 926.441 899.691C926.006 898.938 925.521 900.885 924.041 901.692Z" fill="#3A3637" fill-opacity="0.5"></path>
<path d="M931.69 904.151C932.273 905.531 934.133 905.962 933.291 906.304C932.449 906.646 931.149 905.463 930.687 904.371C930.225 903.279 930.29 901.541 931.132 901.199C931.974 900.857 931.063 902.666 931.69 904.151Z" fill="#3A3637" fill-opacity="0.5"></path>
<ellipse cx="1.28927" cy="3.63322" rx="1.28927" ry="3.63322" transform="matrix(-0.989633 -0.318127 0.334804 -0.900416 943.701 864.79)" fill="#3A3637" fill-opacity="0.5"></ellipse>
<path d="M926.994 873.649C929.919 865.782 939.087 861.36 942.643 862.503C946.199 863.646 950.309 873.213 947.384 881.079C944.459 888.945 935.607 892.133 932.051 890.99C928.494 889.847 924.069 881.515 926.994 873.649Z" fill="#FBA30F" fill-opacity="0.5"></path>
<path d="M926.062 878.465L935.912 881.631L945.421 884.688C941.973 889.34 935.692 892.16 932.136 891.017C928.579 889.874 925.5 882.801 926.062 878.465Z" fill="#3A3637" fill-opacity="0.5"></path>
<ellipse cx="6.50631" cy="7.04073" rx="6.50631" ry="7.04073" transform="matrix(-0.989633 -0.318127 0.334804 -0.900416 934.754 903.104)" fill="#FBA30F" fill-opacity="0.5"></ellipse>
<path d="M948.359 876.784L928.616 870.438C928.616 870.438 929.092 869.712 929.432 869.271C930.028 868.499 930.423 868.107 931.123 867.418C931.587 866.963 931.852 866.71 932.354 866.293C933.035 865.725 934.19 864.948 934.19 864.948L947.494 869.224C947.494 869.224 947.879 870.383 948.034 871.241C948.169 871.992 948.223 872.457 948.301 873.217C948.362 873.804 948.382 874.272 948.405 874.863C948.435 875.618 948.359 876.784 948.359 876.784Z" fill="#3A3637" fill-opacity="0.5"></path>
<g filter="url('#filter12_d_289_385')">
<path d="M945.311 891.15C938.523 893.826 933.386 884.225 939.635 880.503C939.993 880.289 940.366 880.103 940.757 879.949C946.223 877.795 951.674 878.555 952.932 881.648C954.189 884.741 950.778 888.995 945.311 891.15Z" fill="#D9D9D9" fill-opacity="0.5" shape-rendering="crispEdges"></path>
<path d="M945.128 890.7C942.047 891.915 939.311 890.372 938.041 887.994C936.772 885.618 937.068 882.599 939.896 880.914C940.231 880.714 940.578 880.541 940.94 880.399C943.601 879.35 946.236 879.02 948.333 879.313C950.442 879.607 951.915 880.509 952.454 881.836C952.994 883.163 952.561 884.816 951.241 886.462C949.928 888.099 947.79 889.651 945.128 890.7Z" stroke="#3A3637" stroke-opacity="0.5" shape-rendering="crispEdges"></path>
</g>
<g filter="url('#filter13_d_289_385')">
<path d="M932.47 877.902C934.898 884.401 925.026 890.295 921.581 884.38C921.39 884.052 921.225 883.707 921.09 883.345C919.112 878.049 920.056 872.537 923.198 871.034C926.341 869.531 930.492 872.606 932.47 877.902Z" fill="#D9D9D9" fill-opacity="0.5" shape-rendering="crispEdges"></path>
<path d="M932.01 878.122C933.114 881.077 931.447 883.916 929.015 885.366C926.584 886.815 923.57 886.771 922.009 884.09C921.83 883.783 921.676 883.461 921.55 883.125C920.586 880.543 920.343 877.93 920.707 875.806C921.073 873.668 922.027 872.129 923.368 871.488C924.708 870.847 926.349 871.144 927.959 872.337C929.559 873.522 931.046 875.54 932.01 878.122Z" stroke="#3A3637" stroke-opacity="0.5" shape-rendering="crispEdges"></path>
</g>
<path d="M933.845 897.75C935.054 896.769 934.96 894.93 935.537 895.587C936.115 896.245 935.303 897.817 934.346 898.594C933.389 899.371 931.641 899.877 931.064 899.22C930.487 898.563 932.544 898.806 933.845 897.75Z" fill="#3A3637" fill-opacity="0.5"></path>
<path d="M1573.11 813.1C1574.31 814.073 1574.13 815.847 1574.76 815.224C1575.38 814.601 1574.62 813.065 1573.67 812.295C1572.72 811.524 1570.94 810.998 1570.31 811.621C1569.68 812.244 1571.82 812.052 1573.11 813.1Z" fill="#3A3637" fill-opacity="0.5"></path>
<path d="M1573.18 805.575C1574.41 804.622 1574.25 802.845 1574.87 803.478C1575.49 804.112 1574.69 805.635 1573.73 806.389C1572.76 807.143 1570.97 807.64 1570.35 807.006C1569.74 806.373 1571.87 806.6 1573.18 805.575Z" fill="#3A3637" fill-opacity="0.5"></path>
<ellipse cx="1.25525" cy="3.72272" rx="1.25525" ry="3.72272" transform="matrix(-0.00965691 0.999953 -0.999965 -0.00834879 1529.23 807.514)" fill="#3A3637" fill-opacity="0.5"></ellipse>
<path d="M1543.58 819.422C1534.63 819.348 1527.2 812.674 1527.23 809.175C1527.27 805.677 1535.71 799.01 1544.66 799.085C1553.62 799.159 1559.68 805.948 1559.65 809.446C1559.62 812.944 1552.53 819.497 1543.58 819.422Z" fill="#FBA30F" fill-opacity="0.5"></path>
<path d="M1548.79 818.711L1548.88 809.02L1548.97 799.666C1554.81 801.225 1559.69 805.864 1559.65 809.362C1559.62 812.86 1553.39 817.826 1548.79 818.711Z" fill="#3A3637" fill-opacity="0.5"></path>
<ellipse cx="6.3346" cy="7.21416" rx="6.3346" ry="7.21416" transform="matrix(-0.00965691 0.999953 -0.999965 -0.00834879 1571.14 803.207)" fill="#FBA30F" fill-opacity="0.5"></ellipse>
<path d="M1539.97 799.591L1539.79 819.013C1539.79 819.013 1538.9 818.825 1538.34 818.666C1537.36 818.386 1536.84 818.163 1535.91 817.764C1535.3 817.501 1534.96 817.347 1534.37 817.038C1533.58 816.618 1532.42 815.847 1532.42 815.847L1532.54 802.759C1532.54 802.759 1533.6 802.052 1534.43 801.642C1535.15 801.284 1535.61 801.089 1536.36 800.777C1536.94 800.537 1537.41 800.37 1538 800.162C1538.76 799.896 1539.97 799.591 1539.97 799.591Z" fill="#3A3637" fill-opacity="0.5"></path>
<g filter="url('#filter14_d_289_385')">
<path d="M1555.59 797.705C1560.5 802.854 1552.37 810.432 1546.56 806.106C1546.22 805.856 1545.91 805.583 1545.62 805.284C1541.69 801.152 1540.73 796.105 1543.48 794.012C1546.23 791.919 1551.66 793.573 1555.59 797.705Z" fill="#D9D9D9" fill-opacity="0.5" shape-rendering="crispEdges"></path>
<path d="M1555.19 798.008C1557.42 800.344 1556.73 803.251 1554.71 805.129C1552.69 807.005 1549.52 807.703 1546.89 805.745C1546.57 805.511 1546.28 805.258 1546.02 804.981C1544.1 802.97 1542.93 800.753 1542.56 798.812C1542.19 796.86 1542.64 795.273 1543.82 794.374C1545.01 793.474 1546.83 793.331 1548.93 793.97C1551.02 794.606 1553.28 795.996 1555.19 798.008Z" stroke="#3A3637" stroke-opacity="0.5" shape-rendering="crispEdges"></path>
</g>
<g filter="url('#filter15_d_289_385')">
<path d="M1546.17 813.242C1552.01 809.043 1561.17 815.88 1556.24 820.785C1555.96 821.055 1555.67 821.309 1555.34 821.541C1550.57 824.971 1544.65 825.893 1542.12 823.601C1539.59 821.309 1541.4 816.671 1546.17 813.242Z" fill="#D9D9D9" fill-opacity="0.5" shape-rendering="crispEdges"></path>
<path d="M1546.54 813.578C1549.2 811.667 1552.62 812.238 1554.88 813.923C1557.13 815.606 1558.04 818.276 1555.81 820.5C1555.55 820.753 1555.27 820.99 1554.97 821.206C1552.65 822.878 1550.06 823.924 1547.78 824.28C1545.48 824.638 1543.61 824.286 1542.53 823.309C1541.45 822.332 1541.23 820.791 1541.93 818.991C1542.63 817.203 1544.22 815.25 1546.54 813.578Z" stroke="#3A3637" stroke-opacity="0.5" shape-rendering="crispEdges"></path>
</g>
<path d="M1565.97 805.714C1564.58 804.96 1562.74 805.629 1563.23 804.91C1563.71 804.192 1565.57 804.408 1566.67 805.004C1567.77 805.6 1568.84 806.979 1568.35 807.697C1567.87 808.415 1567.46 806.525 1565.97 805.714Z" fill="#3A3637" fill-opacity="0.5"></path>
<defs>
<filter id="filter0_d_289_385" x="1288.76" y="1012.4" width="20.9199" height="23.6721" filterUnits="userSpaceOnUse" color-interpolation-filters="sRGB">
<feFlood flood-opacity="0" result="BackgroundImageFix"></feFlood>
<feColorMatrix in="SourceAlpha" type="matrix" values="0 0 0 0 0 0 0 0 0 0 0 0 0 0 0 0 0 0 127 0" result="hardAlpha"></feColorMatrix>
<feOffset dy="4"></feOffset>
<feGaussianBlur stdDeviation="2"></feGaussianBlur>
<feComposite in2="hardAlpha" operator="out"></feComposite>
<feColorMatrix type="matrix" values="0 0 0 0 0.227451 0 0 0 0 0.211765 0 0 0 0 0.215686 0 0 0 0.5 0"></feColorMatrix>
<feBlend mode="normal" in2="BackgroundImageFix" result="effect1_dropShadow_289_385"></feBlend>
<feBlend mode="normal" in="SourceGraphic" in2="effect1_dropShadow_289_385" result="shape"></feBlend>
</filter>
<filter id="filter1_d_289_385" x="1302.15" y="1001.62" width="24.7422" height="20.3838" filterUnits="userSpaceOnUse" color-interpolation-filters="sRGB">
<feFlood flood-opacity="0" result="BackgroundImageFix"></feFlood>
<feColorMatrix in="SourceAlpha" type="matrix" values="0 0 0 0 0 0 0 0 0 0 0 0 0 0 0 0 0 0 127 0" result="hardAlpha"></feColorMatrix>
<feOffset dy="4"></feOffset>
<feGaussianBlur stdDeviation="2"></feGaussianBlur>
<feComposite in2="hardAlpha" operator="out"></feComposite>
<feColorMatrix type="matrix" values="0 0 0 0 0.227451 0 0 0 0 0.211765 0 0 0 0 0.215686 0 0 0 0.5 0"></feColorMatrix>
<feBlend mode="normal" in2="BackgroundImageFix" result="effect1_dropShadow_289_385"></feBlend>
<feBlend mode="normal" in="SourceGraphic" in2="effect1_dropShadow_289_385" result="shape"></feBlend>
</filter>
<filter id="filter2_d_289_385" x="849.746" y="325.111" width="20.9199" height="23.6721" filterUnits="userSpaceOnUse" color-interpolation-filters="sRGB">
<feFlood flood-opacity="0" result="BackgroundImageFix"></feFlood>
<feColorMatrix in="SourceAlpha" type="matrix" values="0 0 0 0 0 0 0 0 0 0 0 0 0 0 0 0 0 0 127 0" result="hardAlpha"></feColorMatrix>
<feOffset dy="4"></feOffset>
<feGaussianBlur stdDeviation="2"></feGaussianBlur>
<feComposite in2="hardAlpha" operator="out"></feComposite>
<feColorMatrix type="matrix" values="0 0 0 0 0.227451 0 0 0 0 0.211765 0 0 0 0 0.215686 0 0 0 0.5 0"></feColorMatrix>
<feBlend mode="normal" in2="BackgroundImageFix" result="effect1_dropShadow_289_385"></feBlend>
<feBlend mode="normal" in="SourceGraphic" in2="effect1_dropShadow_289_385" result="shape"></feBlend>
</filter>
<filter id="filter3_d_289_385" x="863.137" y="314.34" width="24.7422" height="20.3837" filterUnits="userSpaceOnUse" color-interpolation-filters="sRGB">
<feFlood flood-opacity="0" result="BackgroundImageFix"></feFlood>
<feColorMatrix in="SourceAlpha" type="matrix" values="0 0 0 0 0 0 0 0 0 0 0 0 0 0 0 0 0 0 127 0" result="hardAlpha"></feColorMatrix>
<feOffset dy="4"></feOffset>
<feGaussianBlur stdDeviation="2"></feGaussianBlur>
<feComposite in2="hardAlpha" operator="out"></feComposite>
<feColorMatrix type="matrix" values="0 0 0 0 0.227451 0 0 0 0 0.211765 0 0 0 0 0.215686 0 0 0 0.5 0"></feColorMatrix>
<feBlend mode="normal" in2="BackgroundImageFix" result="effect1_dropShadow_289_385"></feBlend>
<feBlend mode="normal" in="SourceGraphic" in2="effect1_dropShadow_289_385" result="shape"></feBlend>
</filter>
<filter id="filter4_d_289_385" x="386.726" y="893.226" width="20.8955" height="23.6885" filterUnits="userSpaceOnUse" color-interpolation-filters="sRGB">
<feFlood flood-opacity="0" result="BackgroundImageFix"></feFlood>
<feColorMatrix in="SourceAlpha" type="matrix" values="0 0 0 0 0 0 0 0 0 0 0 0 0 0 0 0 0 0 127 0" result="hardAlpha"></feColorMatrix>
<feOffset dy="4"></feOffset>
<feGaussianBlur stdDeviation="2"></feGaussianBlur>
<feComposite in2="hardAlpha" operator="out"></feComposite>
<feColorMatrix type="matrix" values="0 0 0 0 0.227451 0 0 0 0 0.211765 0 0 0 0 0.215686 0 0 0 0.5 0"></feColorMatrix>
<feBlend mode="normal" in2="BackgroundImageFix" result="effect1_dropShadow_289_385"></feBlend>
<feBlend mode="normal" in="SourceGraphic" in2="effect1_dropShadow_289_385" result="shape"></feBlend>
</filter>
<filter id="filter5_d_289_385" x="371.501" y="909.663" width="25.1816" height="19.8376" filterUnits="userSpaceOnUse" color-interpolation-filters="sRGB">
<feFlood flood-opacity="0" result="BackgroundImageFix"></feFlood>
<feColorMatrix in="SourceAlpha" type="matrix" values="0 0 0 0 0 0 0 0 0 0 0 0 0 0 0 0 0 0 127 0" result="hardAlpha"></feColorMatrix>
<feOffset dy="4"></feOffset>
<feGaussianBlur stdDeviation="2"></feGaussianBlur>
<feComposite in2="hardAlpha" operator="out"></feComposite>
<feColorMatrix type="matrix" values="0 0 0 0 0.227451 0 0 0 0 0.211765 0 0 0 0 0.215686 0 0 0 0.5 0"></feColorMatrix>
<feBlend mode="normal" in2="BackgroundImageFix" result="effect1_dropShadow_289_385"></feBlend>
<feBlend mode="normal" in="SourceGraphic" in2="effect1_dropShadow_289_385" result="shape"></feBlend>
</filter>
<filter id="filter6_d_289_385" x="494.883" y="530.207" width="20.8691" height="23.7098" filterUnits="userSpaceOnUse" color-interpolation-filters="sRGB">
<feFlood flood-opacity="0" result="BackgroundImageFix"></feFlood>
<feColorMatrix in="SourceAlpha" type="matrix" values="0 0 0 0 0 0 0 0 0 0 0 0 0 0 0 0 0 0 127 0" result="hardAlpha"></feColorMatrix>
<feOffset dy="4"></feOffset>
<feGaussianBlur stdDeviation="2"></feGaussianBlur>
<feComposite in2="hardAlpha" operator="out"></feComposite>
<feColorMatrix type="matrix" values="0 0 0 0 0.227451 0 0 0 0 0.211765 0 0 0 0 0.215686 0 0 0 0.5 0"></feColorMatrix>
<feBlend mode="normal" in2="BackgroundImageFix" result="effect1_dropShadow_289_385"></feBlend>
<feBlend mode="normal" in="SourceGraphic" in2="effect1_dropShadow_289_385" result="shape"></feBlend>
</filter>
<filter id="filter7_d_289_385" x="478.255" y="545.148" width="24.8965" height="20.1664" filterUnits="userSpaceOnUse" color-interpolation-filters="sRGB">
<feFlood flood-opacity="0" result="BackgroundImageFix"></feFlood>
<feColorMatrix in="SourceAlpha" type="matrix" values="0 0 0 0 0 0 0 0 0 0 0 0 0 0 0 0 0 0 127 0" result="hardAlpha"></feColorMatrix>
<feOffset dy="4"></feOffset>
<feGaussianBlur stdDeviation="2"></feGaussianBlur>
<feComposite in2="hardAlpha" operator="out"></feComposite>
<feColorMatrix type="matrix" values="0 0 0 0 0.227451 0 0 0 0 0.211765 0 0 0 0 0.215686 0 0 0 0.5 0"></feColorMatrix>
<feBlend mode="normal" in2="BackgroundImageFix" result="effect1_dropShadow_289_385"></feBlend>
<feBlend mode="normal" in="SourceGraphic" in2="effect1_dropShadow_289_385" result="shape"></feBlend>
</filter>
<filter id="filter8_d_289_385" x="1511.88" y="167.207" width="20.8691" height="23.7097" filterUnits="userSpaceOnUse" color-interpolation-filters="sRGB">
<feFlood flood-opacity="0" result="BackgroundImageFix"></feFlood>
<feColorMatrix in="SourceAlpha" type="matrix" values="0 0 0 0 0 0 0 0 0 0 0 0 0 0 0 0 0 0 127 0" result="hardAlpha"></feColorMatrix>
<feOffset dy="4"></feOffset>
<feGaussianBlur stdDeviation="2"></feGaussianBlur>
<feComposite in2="hardAlpha" operator="out"></feComposite>
<feColorMatrix type="matrix" values="0 0 0 0 0.227451 0 0 0 0 0.211765 0 0 0 0 0.215686 0 0 0 0.5 0"></feColorMatrix>
<feBlend mode="normal" in2="BackgroundImageFix" result="effect1_dropShadow_289_385"></feBlend>
<feBlend mode="normal" in="SourceGraphic" in2="effect1_dropShadow_289_385" result="shape"></feBlend>
</filter>
<filter id="filter9_d_289_385" x="1495.25" y="182.148" width="24.8984" height="20.1664" filterUnits="userSpaceOnUse" color-interpolation-filters="sRGB">
<feFlood flood-opacity="0" result="BackgroundImageFix"></feFlood>
<feColorMatrix in="SourceAlpha" type="matrix" values="0 0 0 0 0 0 0 0 0 0 0 0 0 0 0 0 0 0 127 0" result="hardAlpha"></feColorMatrix>
<feOffset dy="4"></feOffset>
<feGaussianBlur stdDeviation="2"></feGaussianBlur>
<feComposite in2="hardAlpha" operator="out"></feComposite>
<feColorMatrix type="matrix" values="0 0 0 0 0.227451 0 0 0 0 0.211765 0 0 0 0 0.215686 0 0 0 0.5 0"></feColorMatrix>
<feBlend mode="normal" in2="BackgroundImageFix" result="effect1_dropShadow_289_385"></feBlend>
<feBlend mode="normal" in="SourceGraphic" in2="effect1_dropShadow_289_385" result="shape"></feBlend>
</filter>
<filter id="filter10_d_289_385" x="1029.66" y="638.955" width="22.9648" height="22.4518" filterUnits="userSpaceOnUse" color-interpolation-filters="sRGB">
<feFlood flood-opacity="0" result="BackgroundImageFix"></feFlood>
<feColorMatrix in="SourceAlpha" type="matrix" values="0 0 0 0 0 0 0 0 0 0 0 0 0 0 0 0 0 0 127 0" result="hardAlpha"></feColorMatrix>
<feOffset dy="4"></feOffset>
<feGaussianBlur stdDeviation="2"></feGaussianBlur>
<feComposite in2="hardAlpha" operator="out"></feComposite>
<feColorMatrix type="matrix" values="0 0 0 0 0.227451 0 0 0 0 0.211765 0 0 0 0 0.215686 0 0 0 0.5 0"></feColorMatrix>
<feBlend mode="normal" in2="BackgroundImageFix" result="effect1_dropShadow_289_385"></feBlend>
<feBlend mode="normal" in="SourceGraphic" in2="effect1_dropShadow_289_385" result="shape"></feBlend>
</filter>
<filter id="filter11_d_289_385" x="1049.44" y="636.84" width="22.3242" height="23.1671" filterUnits="userSpaceOnUse" color-interpolation-filters="sRGB">
<feFlood flood-opacity="0" result="BackgroundImageFix"></feFlood>
<feColorMatrix in="SourceAlpha" type="matrix" values="0 0 0 0 0 0 0 0 0 0 0 0 0 0 0 0 0 0 127 0" result="hardAlpha"></feColorMatrix>
<feOffset dy="4"></feOffset>
<feGaussianBlur stdDeviation="2"></feGaussianBlur>
<feComposite in2="hardAlpha" operator="out"></feComposite>
<feColorMatrix type="matrix" values="0 0 0 0 0.227451 0 0 0 0 0.211765 0 0 0 0 0.215686 0 0 0 0.5 0"></feColorMatrix>
<feBlend mode="normal" in2="BackgroundImageFix" result="effect1_dropShadow_289_385"></feBlend>
<feBlend mode="normal" in="SourceGraphic" in2="effect1_dropShadow_289_385" result="shape"></feBlend>
</filter>
<filter id="filter12_d_289_385" x="932.814" y="878.724" width="24.3789" height="20.8907" filterUnits="userSpaceOnUse" color-interpolation-filters="sRGB">
<feFlood flood-opacity="0" result="BackgroundImageFix"></feFlood>
<feColorMatrix in="SourceAlpha" type="matrix" values="0 0 0 0 0 0 0 0 0 0 0 0 0 0 0 0 0 0 127 0" result="hardAlpha"></feColorMatrix>
<feOffset dy="4"></feOffset>
<feGaussianBlur stdDeviation="2"></feGaussianBlur>
<feComposite in2="hardAlpha" operator="out"></feComposite>
<feColorMatrix type="matrix" values="0 0 0 0 0.227451 0 0 0 0 0.211765 0 0 0 0 0.215686 0 0 0 0.5 0"></feColorMatrix>
<feBlend mode="normal" in2="BackgroundImageFix" result="effect1_dropShadow_289_385"></feBlend>
<feBlend mode="normal" in="SourceGraphic" in2="effect1_dropShadow_289_385" result="shape"></feBlend>
</filter>
<filter id="filter13_d_289_385" x="916.055" y="870.653" width="20.7949" height="24.1675" filterUnits="userSpaceOnUse" color-interpolation-filters="sRGB">
<feFlood flood-opacity="0" result="BackgroundImageFix"></feFlood>
<feColorMatrix in="SourceAlpha" type="matrix" values="0 0 0 0 0 0 0 0 0 0 0 0 0 0 0 0 0 0 127 0" result="hardAlpha"></feColorMatrix>
<feOffset dy="4"></feOffset>
<feGaussianBlur stdDeviation="2"></feGaussianBlur>
<feComposite in2="hardAlpha" operator="out"></feComposite>
<feColorMatrix type="matrix" values="0 0 0 0 0.227451 0 0 0 0 0.211765 0 0 0 0 0.215686 0 0 0 0.5 0"></feColorMatrix>
<feBlend mode="normal" in2="BackgroundImageFix" result="effect1_dropShadow_289_385"></feBlend>
<feBlend mode="normal" in="SourceGraphic" in2="effect1_dropShadow_289_385" result="shape"></feBlend>
</filter>
<filter id="filter14_d_289_385" x="1537.91" y="793.105" width="23.1934" height="22.284" filterUnits="userSpaceOnUse" color-interpolation-filters="sRGB">
<feFlood flood-opacity="0" result="BackgroundImageFix"></feFlood>
<feColorMatrix in="SourceAlpha" type="matrix" values="0 0 0 0 0 0 0 0 0 0 0 0 0 0 0 0 0 0 127 0" result="hardAlpha"></feColorMatrix>
<feOffset dy="4"></feOffset>
<feGaussianBlur stdDeviation="2"></feGaussianBlur>
<feComposite in2="hardAlpha" operator="out"></feComposite>
<feColorMatrix type="matrix" values="0 0 0 0 0.227451 0 0 0 0 0.211765 0 0 0 0 0.215686 0 0 0 0.5 0"></feColorMatrix>
<feBlend mode="normal" in2="BackgroundImageFix" result="effect1_dropShadow_289_385"></feBlend>
<feBlend mode="normal" in="SourceGraphic" in2="effect1_dropShadow_289_385" result="shape"></feBlend>
</filter>
<filter id="filter15_d_289_385" x="1536.98" y="811.935" width="24.668" height="20.9255" filterUnits="userSpaceOnUse" color-interpolation-filters="sRGB">
<feFlood flood-opacity="0" result="BackgroundImageFix"></feFlood>
<feColorMatrix in="SourceAlpha" type="matrix" values="0 0 0 0 0 0 0 0 0 0 0 0 0 0 0 0 0 0 127 0" result="hardAlpha"></feColorMatrix>
<feOffset dy="4"></feOffset>
<feGaussianBlur stdDeviation="2"></feGaussianBlur>
<feComposite in2="hardAlpha" operator="out"></feComposite>
<feColorMatrix type="matrix" values="0 0 0 0 0.227451 0 0 0 0 0.211765 0 0 0 0 0.215686 0 0 0 0.5 0"></feColorMatrix>
<feBlend mode="normal" in2="BackgroundImageFix" result="effect1_dropShadow_289_385"></feBlend>
<feBlend mode="normal" in="SourceGraphic" in2="effect1_dropShadow_289_385" result="shape"></feBlend>
</filter>
<radialGradient id="paint0_radial_289_385" cx="0" cy="0" r="1" gradientUnits="userSpaceOnUse" gradientTransform="translate(864 -343.5) rotate(90) scale(1460.5 1460.5)">
<stop offset="0.505"></stop>
<stop offset="1" stop-color="#2C3E50"></stop>
</radialGradient>
<linearGradient id="paint1_linear_289_385" x1="64.3673" y1="1033.74" x2="64.3673" y2="1096.91" gradientUnits="userSpaceOnUse">
<stop stop-color="#FFCA00"></stop>
<stop offset="0.96" stop-color="#FBA30F" stop-opacity="0.6"></stop>
</linearGradient>
<linearGradient id="paint2_linear_289_385" x1="170.508" y1="1033.74" x2="170.508" y2="1096.91" gradientUnits="userSpaceOnUse">
<stop stop-color="#FFCA00"></stop>
<stop offset="0.96" stop-color="#FBA30F" stop-opacity="0.6"></stop>
</linearGradient>
<linearGradient id="paint3_linear_289_385" x1="276.649" y1="1033.74" x2="276.649" y2="1096.91" gradientUnits="userSpaceOnUse">
<stop stop-color="#FFCA00"></stop>
<stop offset="0.96" stop-color="#FBA30F" stop-opacity="0.6"></stop>
</linearGradient>
<linearGradient id="paint4_linear_289_385" x1="382.789" y1="1033.74" x2="382.789" y2="1096.91" gradientUnits="userSpaceOnUse">
<stop stop-color="#FFCA00"></stop>
<stop offset="0.96" stop-color="#FBA30F" stop-opacity="0.6"></stop>
</linearGradient>
<linearGradient id="paint5_linear_289_385" x1="488.931" y1="1033.74" x2="488.931" y2="1096.91" gradientUnits="userSpaceOnUse">
<stop stop-color="#FFCA00"></stop>
<stop offset="0.96" stop-color="#FBA30F" stop-opacity="0.6"></stop>
</linearGradient>
<linearGradient id="paint6_linear_289_385" x1="595.07" y1="1033.74" x2="595.07" y2="1096.91" gradientUnits="userSpaceOnUse">
<stop stop-color="#FFCA00"></stop>
<stop offset="0.96" stop-color="#FBA30F" stop-opacity="0.6"></stop>
</linearGradient>
<linearGradient id="paint7_linear_289_385" x1="701.212" y1="1033.74" x2="701.212" y2="1096.91" gradientUnits="userSpaceOnUse">
<stop stop-color="#FFCA00"></stop>
<stop offset="0.96" stop-color="#FBA30F" stop-opacity="0.6"></stop>
</linearGradient>
<linearGradient id="paint8_linear_289_385" x1="807.353" y1="1033.74" x2="807.353" y2="1096.91" gradientUnits="userSpaceOnUse">
<stop stop-color="#FFCA00"></stop>
<stop offset="0.96" stop-color="#FBA30F" stop-opacity="0.6"></stop>
</linearGradient>
<linearGradient id="paint9_linear_289_385" x1="913.491" y1="1033.74" x2="913.491" y2="1096.91" gradientUnits="userSpaceOnUse">
<stop stop-color="#FFCA00"></stop>
<stop offset="0.96" stop-color="#FBA30F" stop-opacity="0.6"></stop>
</linearGradient>
<linearGradient id="paint10_linear_289_385" x1="1019.63" y1="1033.74" x2="1019.63" y2="1096.91" gradientUnits="userSpaceOnUse">
<stop stop-color="#FFCA00"></stop>
<stop offset="0.96" stop-color="#FBA30F" stop-opacity="0.6"></stop>
</linearGradient>
<linearGradient id="paint11_linear_289_385" x1="1125.77" y1="1033.74" x2="1125.77" y2="1096.91" gradientUnits="userSpaceOnUse">
<stop stop-color="#FFCA00"></stop>
<stop offset="0.96" stop-color="#FBA30F" stop-opacity="0.6"></stop>
</linearGradient>
<linearGradient id="paint12_linear_289_385" x1="1231.91" y1="1033.74" x2="1231.91" y2="1096.91" gradientUnits="userSpaceOnUse">
<stop stop-color="#FFCA00"></stop>
<stop offset="0.96" stop-color="#FBA30F" stop-opacity="0.6"></stop>
</linearGradient>
<linearGradient id="paint13_linear_289_385" x1="1338.06" y1="1033.74" x2="1338.06" y2="1096.91" gradientUnits="userSpaceOnUse">
<stop stop-color="#FFCA00"></stop>
<stop offset="0.96" stop-color="#FBA30F" stop-opacity="0.6"></stop>
</linearGradient>
<linearGradient id="paint14_linear_289_385" x1="1444.19" y1="1033.74" x2="1444.19" y2="1096.91" gradientUnits="userSpaceOnUse">
<stop stop-color="#FFCA00"></stop>
<stop offset="0.96" stop-color="#FBA30F" stop-opacity="0.6"></stop>
</linearGradient>
<linearGradient id="paint15_linear_289_385" x1="1550.34" y1="1033.74" x2="1550.34" y2="1096.91" gradientUnits="userSpaceOnUse">
<stop stop-color="#FFCA00"></stop>
<stop offset="0.96" stop-color="#FBA30F" stop-opacity="0.6"></stop>
</linearGradient>
<linearGradient id="paint16_linear_289_385" x1="1656.48" y1="1033.74" x2="1656.48" y2="1096.91" gradientUnits="userSpaceOnUse">
<stop stop-color="#FFCA00"></stop>
<stop offset="0.96" stop-color="#FBA30F" stop-opacity="0.6"></stop>
</linearGradient>
<linearGradient id="paint17_linear_289_385" x1="117.683" y1="940.544" x2="117.683" y2="1030.15" gradientUnits="userSpaceOnUse">
<stop stop-color="#FFCA00"></stop>
<stop offset="0.96" stop-color="#FBA30F" stop-opacity="0.6"></stop>
</linearGradient>
<linearGradient id="paint18_linear_289_385" x1="222.841" y1="940.544" x2="222.841" y2="1030.15" gradientUnits="userSpaceOnUse">
<stop stop-color="#FFCA00"></stop>
<stop offset="0.96" stop-color="#FBA30F" stop-opacity="0.6"></stop>
</linearGradient>
<linearGradient id="paint19_linear_289_385" x1="327.999" y1="940.544" x2="327.999" y2="1030.15" gradientUnits="userSpaceOnUse">
<stop stop-color="#FFCA00"></stop>
<stop offset="0.96" stop-color="#FBA30F" stop-opacity="0.6"></stop>
</linearGradient>
<linearGradient id="paint20_linear_289_385" x1="433.157" y1="940.544" x2="433.157" y2="1030.15" gradientUnits="userSpaceOnUse">
<stop stop-color="#FFCA00"></stop>
<stop offset="0.96" stop-color="#FBA30F" stop-opacity="0.6"></stop>
</linearGradient>
<linearGradient id="paint21_linear_289_385" x1="538.315" y1="940.544" x2="538.315" y2="1030.15" gradientUnits="userSpaceOnUse">
<stop stop-color="#FFCA00"></stop>
<stop offset="0.96" stop-color="#FBA30F" stop-opacity="0.6"></stop>
</linearGradient>
<linearGradient id="paint22_linear_289_385" x1="643.473" y1="940.544" x2="643.473" y2="1030.15" gradientUnits="userSpaceOnUse">
<stop stop-color="#FFCA00"></stop>
<stop offset="0.96" stop-color="#FBA30F" stop-opacity="0.6"></stop>
</linearGradient>
<linearGradient id="paint23_linear_289_385" x1="748.631" y1="940.544" x2="748.631" y2="1030.15" gradientUnits="userSpaceOnUse">
<stop stop-color="#FFCA00"></stop>
<stop offset="0.96" stop-color="#FBA30F" stop-opacity="0.6"></stop>
</linearGradient>
<linearGradient id="paint24_linear_289_385" x1="853.787" y1="940.544" x2="853.787" y2="1030.15" gradientUnits="userSpaceOnUse">
<stop stop-color="#FFCA00"></stop>
<stop offset="0.96" stop-color="#FBA30F" stop-opacity="0.6"></stop>
</linearGradient>
<linearGradient id="paint25_linear_289_385" x1="958.946" y1="940.544" x2="958.946" y2="1030.15" gradientUnits="userSpaceOnUse">
<stop stop-color="#FFCA00"></stop>
<stop offset="0.96" stop-color="#FBA30F" stop-opacity="0.6"></stop>
</linearGradient>
<linearGradient id="paint26_linear_289_385" x1="1064.1" y1="940.544" x2="1064.1" y2="1030.15" gradientUnits="userSpaceOnUse">
<stop stop-color="#FFCA00"></stop>
<stop offset="0.96" stop-color="#FBA30F" stop-opacity="0.6"></stop>
</linearGradient>
<linearGradient id="paint27_linear_289_385" x1="1169.26" y1="940.544" x2="1169.26" y2="1030.15" gradientUnits="userSpaceOnUse">
<stop stop-color="#FFCA00"></stop>
<stop offset="0.96" stop-color="#FBA30F" stop-opacity="0.6"></stop>
</linearGradient>
<linearGradient id="paint28_linear_289_385" x1="1274.42" y1="940.544" x2="1274.42" y2="1030.15" gradientUnits="userSpaceOnUse">
<stop stop-color="#FFCA00"></stop>
<stop offset="0.96" stop-color="#FBA30F" stop-opacity="0.6"></stop>
</linearGradient>
<linearGradient id="paint29_linear_289_385" x1="1379.58" y1="940.544" x2="1379.58" y2="1030.15" gradientUnits="userSpaceOnUse">
<stop stop-color="#FFCA00"></stop>
<stop offset="0.96" stop-color="#FBA30F" stop-opacity="0.6"></stop>
</linearGradient>
<linearGradient id="paint30_linear_289_385" x1="1484.74" y1="940.544" x2="1484.74" y2="1030.15" gradientUnits="userSpaceOnUse">
<stop stop-color="#FFCA00"></stop>
<stop offset="0.96" stop-color="#FBA30F" stop-opacity="0.6"></stop>
</linearGradient>
<linearGradient id="paint31_linear_289_385" x1="1589.89" y1="940.544" x2="1589.89" y2="1030.15" gradientUnits="userSpaceOnUse">
<stop stop-color="#FFCA00"></stop>
<stop offset="0.96" stop-color="#FBA30F" stop-opacity="0.6"></stop>
</linearGradient>
<linearGradient id="paint32_linear_289_385" x1="63.6303" y1="850.935" x2="63.6303" y2="940.544" gradientUnits="userSpaceOnUse">
<stop stop-color="#FFCA00"></stop>
<stop offset="0.96" stop-color="#FBA30F" stop-opacity="0.6"></stop>
</linearGradient>
<linearGradient id="paint33_linear_289_385" x1="168.788" y1="850.935" x2="168.788" y2="940.544" gradientUnits="userSpaceOnUse">
<stop stop-color="#FFCA00"></stop>
<stop offset="0.96" stop-color="#FBA30F" stop-opacity="0.6"></stop>
</linearGradient>
<linearGradient id="paint34_linear_289_385" x1="708.336" y1="655.588" x2="708.336" y2="745.197" gradientUnits="userSpaceOnUse">
<stop stop-color="#FFCA00"></stop>
<stop offset="0.96" stop-color="#FBA30F" stop-opacity="0.6"></stop>
</linearGradient>
<linearGradient id="paint35_linear_289_385" x1="1018.9" y1="564.186" x2="1018.9" y2="653.795" gradientUnits="userSpaceOnUse">
<stop stop-color="#FFCA00"></stop>
<stop offset="0.96" stop-color="#FBA30F" stop-opacity="0.6"></stop>
</linearGradient>
<linearGradient id="paint36_linear_289_385" x1="1274.42" y1="700.392" x2="1274.42" y2="790.001" gradientUnits="userSpaceOnUse">
<stop stop-color="#FFCA00"></stop>
<stop offset="0.96" stop-color="#FBA30F" stop-opacity="0.6"></stop>
</linearGradient>
<linearGradient id="paint37_linear_289_385" x1="129.786" y1="142" x2="129.786" y2="231.609" gradientUnits="userSpaceOnUse">
<stop stop-color="#FFCA00"></stop>
<stop offset="0.96" stop-color="#FBA30F" stop-opacity="0.6"></stop>
</linearGradient>
<linearGradient id="paint38_linear_289_385" x1="552.786" y1="126" x2="552.786" y2="215.609" gradientUnits="userSpaceOnUse">
<stop stop-color="#FFCA00"></stop>
<stop offset="0.96" stop-color="#FBA30F" stop-opacity="0.6"></stop>
</linearGradient>
<linearGradient id="paint39_linear_289_385" x1="829.786" y1="245" x2="829.786" y2="334.609" gradientUnits="userSpaceOnUse">
<stop stop-color="#FFCA00"></stop>
<stop offset="0.96" stop-color="#FBA30F" stop-opacity="0.6"></stop>
</linearGradient>
<linearGradient id="paint40_linear_289_385" x1="1538.79" y1="155" x2="1538.79" y2="244.609" gradientUnits="userSpaceOnUse">
<stop stop-color="#FFCA00"></stop>
<stop offset="0.96" stop-color="#FBA30F" stop-opacity="0.6"></stop>
</linearGradient>
<linearGradient id="paint41_linear_289_385" x1="1255.79" y1="26" x2="1255.79" y2="115.609" gradientUnits="userSpaceOnUse">
<stop stop-color="#FFCA00"></stop>
<stop offset="0.96" stop-color="#FBA30F" stop-opacity="0.6"></stop>
</linearGradient>
<linearGradient id="paint42_linear_289_385" x1="1591.86" y1="761.326" x2="1591.86" y2="850.935" gradientUnits="userSpaceOnUse">
<stop stop-color="#FFCA00"></stop>
<stop offset="0.96" stop-color="#FBA30F" stop-opacity="0.6"></stop>
</linearGradient>
<linearGradient id="paint43_linear_289_385" x1="118.175" y1="740.716" x2="118.175" y2="807.923" gradientUnits="userSpaceOnUse">
<stop stop-color="#FFCA00"></stop>
<stop offset="0.96" stop-color="#FBA30F" stop-opacity="0.6"></stop>
</linearGradient>
<linearGradient id="paint44_linear_289_385" x1="1464.59" y1="633.185" x2="1464.59" y2="700.392" gradientUnits="userSpaceOnUse">
<stop stop-color="#FFCA00"></stop>
<stop offset="0.96" stop-color="#FBA30F" stop-opacity="0.6"></stop>
</linearGradient>
<linearGradient id="paint45_linear_289_385" x1="553.057" y1="625.12" x2="553.057" y2="683.366" gradientUnits="userSpaceOnUse">
<stop stop-color="#FFCA00"></stop>
<stop offset="0.96" stop-color="#FBA30F" stop-opacity="0.6"></stop>
</linearGradient>
<linearGradient id="paint46_linear_289_385" x1="277.027" y1="464" x2="277.027" y2="522.246" gradientUnits="userSpaceOnUse">
<stop stop-color="#FFCA00"></stop>
<stop offset="0.96" stop-color="#FBA30F" stop-opacity="0.6"></stop>
</linearGradient>
<linearGradient id="paint47_linear_289_385" x1="1015.03" y1="142" x2="1015.03" y2="200.246" gradientUnits="userSpaceOnUse">
<stop stop-color="#FFCA00"></stop>
<stop offset="0.96" stop-color="#FBA30F" stop-opacity="0.6"></stop>
</linearGradient>
<linearGradient id="paint48_linear_289_385" x1="1380.03" y1="245" x2="1380.03" y2="303.246" gradientUnits="userSpaceOnUse">
<stop stop-color="#FFCA00"></stop>
<stop offset="0.96" stop-color="#FBA30F" stop-opacity="0.6"></stop>
</linearGradient>
<linearGradient id="paint49_linear_289_385" x1="1627.03" y1="390" x2="1627.03" y2="448.246" gradientUnits="userSpaceOnUse">
<stop stop-color="#FFCA00"></stop>
<stop offset="0.96" stop-color="#FBA30F" stop-opacity="0.6"></stop>
</linearGradient>
<linearGradient id="paint50_linear_289_385" x1="776.148" y1="513.109" x2="776.148" y2="565.082" gradientUnits="userSpaceOnUse">
<stop stop-color="#FFCA00"></stop>
<stop offset="0.96" stop-color="#FBA30F" stop-opacity="0.6"></stop>
</linearGradient>
<linearGradient id="paint51_linear_289_385" x1="1046.03" y1="422" x2="1046.03" y2="473.973" gradientUnits="userSpaceOnUse">
<stop stop-color="#FFCA00"></stop>
<stop offset="0.96" stop-color="#FBA30F" stop-opacity="0.6"></stop>
</linearGradient>
<linearGradient id="paint52_linear_289_385" x1="489.027" y1="338" x2="489.027" y2="389.973" gradientUnits="userSpaceOnUse">
<stop stop-color="#FFCA00"></stop>
<stop offset="0.96" stop-color="#FBA30F" stop-opacity="0.6"></stop>
</linearGradient>
<linearGradient id="paint53_linear_289_385" x1="1209.56" y1="555.225" x2="1209.56" y2="607.199" gradientUnits="userSpaceOnUse">
<stop stop-color="#FFCA00"></stop>
<stop offset="0.96" stop-color="#FBA30F" stop-opacity="0.6"></stop>
</linearGradient>
<linearGradient id="paint54_linear_289_385" x1="273.946" y1="850.935" x2="273.946" y2="940.544" gradientUnits="userSpaceOnUse">
<stop stop-color="#FFCA00"></stop>
<stop offset="0.96" stop-color="#FBA30F" stop-opacity="0.6"></stop>
</linearGradient>
<linearGradient id="paint55_linear_289_385" x1="379.104" y1="850.935" x2="379.104" y2="940.544" gradientUnits="userSpaceOnUse">
<stop stop-color="#FFCA00"></stop>
<stop offset="0.96" stop-color="#FBA30F" stop-opacity="0.6"></stop>
</linearGradient>
<linearGradient id="paint56_linear_289_385" x1="484.261" y1="850.935" x2="484.261" y2="940.544" gradientUnits="userSpaceOnUse">
<stop stop-color="#FFCA00"></stop>
<stop offset="0.96" stop-color="#FBA30F" stop-opacity="0.6"></stop>
</linearGradient>
<linearGradient id="paint57_linear_289_385" x1="589.419" y1="850.935" x2="589.419" y2="940.544" gradientUnits="userSpaceOnUse">
<stop stop-color="#FFCA00"></stop>
<stop offset="0.96" stop-color="#FBA30F" stop-opacity="0.6"></stop>
</linearGradient>
<linearGradient id="paint58_linear_289_385" x1="694.578" y1="850.935" x2="694.578" y2="940.544" gradientUnits="userSpaceOnUse">
<stop stop-color="#FFCA00"></stop>
<stop offset="0.96" stop-color="#FBA30F" stop-opacity="0.6"></stop>
</linearGradient>
<linearGradient id="paint59_linear_289_385" x1="799.735" y1="850.935" x2="799.735" y2="940.544" gradientUnits="userSpaceOnUse">
<stop stop-color="#FFCA00"></stop>
<stop offset="0.96" stop-color="#FBA30F" stop-opacity="0.6"></stop>
</linearGradient>
<linearGradient id="paint60_linear_289_385" x1="904.893" y1="850.935" x2="904.893" y2="940.544" gradientUnits="userSpaceOnUse">
<stop stop-color="#FFCA00"></stop>
<stop offset="0.96" stop-color="#FBA30F" stop-opacity="0.6"></stop>
</linearGradient>
<linearGradient id="paint61_linear_289_385" x1="1010.05" y1="850.935" x2="1010.05" y2="940.544" gradientUnits="userSpaceOnUse">
<stop stop-color="#FFCA00"></stop>
<stop offset="0.96" stop-color="#FBA30F" stop-opacity="0.6"></stop>
</linearGradient>
<linearGradient id="paint62_linear_289_385" x1="1115.21" y1="850.935" x2="1115.21" y2="940.544" gradientUnits="userSpaceOnUse">
<stop stop-color="#FFCA00"></stop>
<stop offset="0.96" stop-color="#FBA30F" stop-opacity="0.6"></stop>
</linearGradient>
<linearGradient id="paint63_linear_289_385" x1="1220.37" y1="850.935" x2="1220.37" y2="940.544" gradientUnits="userSpaceOnUse">
<stop stop-color="#FFCA00"></stop>
<stop offset="0.96" stop-color="#FBA30F" stop-opacity="0.6"></stop>
</linearGradient>
<linearGradient id="paint64_linear_289_385" x1="1325.52" y1="850.935" x2="1325.52" y2="940.544" gradientUnits="userSpaceOnUse">
<stop stop-color="#FFCA00"></stop>
<stop offset="0.96" stop-color="#FBA30F" stop-opacity="0.6"></stop>
</linearGradient>
<linearGradient id="paint65_linear_289_385" x1="1430.68" y1="850.935" x2="1430.68" y2="940.544" gradientUnits="userSpaceOnUse">
<stop stop-color="#FFCA00"></stop>
<stop offset="0.96" stop-color="#FBA30F" stop-opacity="0.6"></stop>
</linearGradient>
<linearGradient id="paint66_linear_289_385" x1="1535.84" y1="850.935" x2="1535.84" y2="940.544" gradientUnits="userSpaceOnUse">
<stop stop-color="#FFCA00"></stop>
<stop offset="0.96" stop-color="#FBA30F" stop-opacity="0.6"></stop>
</linearGradient>
<linearGradient id="paint67_linear_289_385" x1="1652.79" y1="847.351" x2="1652.79" y2="936.96" gradientUnits="userSpaceOnUse">
<stop stop-color="#FFCA00"></stop>
<stop offset="0.96" stop-color="#FBA30F" stop-opacity="0.6"></stop>
</linearGradient>
<linearGradient id="paint68_linear_289_385" x1="1673.92" y1="940.544" x2="1673.92" y2="1030.15" gradientUnits="userSpaceOnUse">
<stop stop-color="#FFCA00"></stop>
<stop offset="0.96" stop-color="#FBA30F" stop-opacity="0.6"></stop>
</linearGradient>
<linearGradient id="paint69_linear_289_385" x1="33.6558" y1="1030.15" x2="33.6558" y2="940.544" gradientUnits="userSpaceOnUse">
<stop stop-color="#FFCA00"></stop>
<stop offset="0.96" stop-color="#FBA30F" stop-opacity="0.6"></stop>
</linearGradient>
</defs>
</svg>
