<svg width="1819" height="874" viewBox="0 0 1819 874" fill="none" xmlns="http://www.w3.org/2000/svg">
<path d="M1772.01 850.506L1818.51 850.5L1818.5 766L1772 766.006L1748.01 809.01L1772.01 850.506Z" fill="url('#paint0_linear_290_131')"></path>
<path d="M1772 742.506L1818.5 742.5L1818.49 658L1771.99 658.006L1747.99 701.01L1772 742.506Z" fill="url('#paint1_linear_290_131')"></path>
<path d="M1771.98 634.506L1818.48 634.5L1818.47 550L1771.97 550.006L1747.98 593.01L1771.98 634.506Z" fill="url('#paint2_linear_290_131')"></path>
<path d="M1771.97 526.506L1818.47 526.5L1818.46 442L1771.96 442.006L1747.96 485.01L1771.97 526.506Z" fill="url('#paint3_linear_290_131')"></path>
<path d="M1771.95 418.506L1818.45 418.5L1818.44 334L1771.94 334.006L1747.95 377.01L1771.95 418.506Z" fill="url('#paint4_linear_290_131')"></path>
<path d="M1771.94 310.506L1818.44 310.5L1818.43 226L1771.93 226.006L1747.93 269.01L1771.94 310.506Z" fill="url('#paint5_linear_290_131')"></path>
<path d="M1771.92 202.506L1818.42 202.5L1818.41 118L1771.91 118.006L1747.92 161.01L1771.92 202.506Z" fill="url('#paint6_linear_290_131')"></path>
<path d="M1771.91 94.5063L1818.41 94.4999L1818.4 9.99993L1771.9 10.0063L1747.9 53.0095L1771.91 94.5063Z" fill="url('#paint7_linear_290_131')"></path>
<path d="M1719.01 803.513L1669.01 803.52L1644 763.524L1668.99 720.52L1718.99 720.513L1744 763.51L1719.01 803.513Z" fill="url('#paint8_linear_290_131')"></path>
<path d="M1718.99 696.513L1668.99 696.52L1643.98 656.524L1668.98 613.52L1718.98 613.513L1743.98 656.51L1718.99 696.513Z" fill="url('#paint9_linear_290_131')"></path>
<path d="M1718.98 589.513L1668.98 589.52L1643.97 549.524L1668.97 506.52L1718.97 506.513L1743.97 549.51L1718.98 589.513Z" fill="url('#paint10_linear_290_131')"></path>
<path d="M1718.96 482.513L1668.96 482.52L1643.96 442.524L1668.95 399.52L1718.95 399.513L1743.96 442.51L1718.96 482.513Z" fill="url('#paint11_linear_290_131')"></path>
<path d="M1718.95 375.513L1668.95 375.52L1643.94 335.524L1668.94 292.52L1718.94 292.513L1743.94 335.51L1718.95 375.513Z" fill="url('#paint12_linear_290_131')"></path>
<path d="M1718.93 268.513L1668.93 268.52L1643.93 228.524L1668.92 185.52L1718.92 185.513L1743.93 228.51L1718.93 268.513Z" fill="url('#paint13_linear_290_131')"></path>
<path d="M1718.92 161.513L1668.92 161.52L1643.91 121.524L1668.91 78.5203L1718.91 78.5135L1743.91 121.51L1718.92 161.513Z" fill="url('#paint14_linear_290_131')"></path>
<path d="M1619.01 858.527L1569.01 858.534L1544.01 818.537L1569 775.534L1619 775.527L1644.01 818.524L1619.01 858.527Z" fill="url('#paint15_linear_290_131')"></path>
<path d="M1619 751.527L1569 751.534L1543.99 711.537L1568.99 668.534L1618.99 668.527L1643.99 711.524L1619 751.527Z" fill="url('#paint16_linear_290_131')"></path>
<path d="M1618.99 644.527L1568.99 644.534L1543.98 604.537L1568.98 561.534L1618.98 561.527L1643.98 604.524L1618.99 644.527Z" fill="url('#paint17_linear_290_131')"></path>
<path d="M1618.97 537.527L1568.97 537.534L1543.97 497.537L1568.96 454.534L1618.96 454.527L1643.97 497.524L1618.97 537.527Z" fill="url('#paint18_linear_290_131')"></path>
<path d="M1618.96 430.527L1568.96 430.534L1543.95 390.537L1568.94 347.534L1618.94 347.527L1643.95 390.524L1618.96 430.527Z" fill="url('#paint19_linear_290_131')"></path>
<path d="M1618.94 323.527L1568.94 323.534L1543.93 283.537L1568.93 240.534L1618.93 240.527L1643.93 283.524L1618.94 323.527Z" fill="url('#paint20_linear_290_131')"></path>
<path d="M1618.93 216.527L1568.93 216.534L1543.92 176.537L1568.91 133.534L1618.91 133.527L1643.92 176.524L1618.93 216.527Z" fill="url('#paint21_linear_290_131')"></path>
<path d="M1614.91 97.5276L1564.91 97.5344L1539.9 57.5378L1564.9 14.5344L1614.9 14.5276L1639.9 57.5242L1614.91 97.5276Z" fill="url('#paint22_linear_290_131')"></path>
<path d="M1718.9 54.5135L1668.9 54.5203L1643.9 14.5237L1743.9 14.5101L1718.9 54.5135Z" fill="url('#paint23_linear_290_131')"></path>
<path d="M1669 819.01L1719 819.003L1744.01 859L1644.01 859.014L1669 819.01Z" fill="url('#paint24_linear_290_131')"></path>
<path d="M1704.34 420.879C1702.68 420.86 1701.55 419.257 1701.5 420.191C1701.45 421.125 1703.17 421.903 1704.48 421.918C1705.79 421.933 1707.58 421.197 1707.62 420.263C1707.67 419.329 1706.12 420.899 1704.34 420.879Z" fill="#3A3637"></path>
<path d="M1709.72 427.2C1709.44 428.799 1710.85 430.18 1709.9 430.058C1708.96 429.937 1708.48 428.145 1708.7 426.879C1708.92 425.613 1709.98 424.018 1710.92 424.139C1711.87 424.261 1710.02 425.478 1709.72 427.2Z" fill="#3A3637"></path>
<ellipse cx="1.37928" cy="3.84754" rx="1.37928" ry="3.84754" transform="matrix(-0.650846 -0.76454 0.770712 -0.630925 1743.06 396.614)" fill="#3A3637"></ellipse>
<path d="M1723.11 396.143C1730.24 390.306 1740.94 390.975 1743.44 393.914C1745.94 396.853 1744.09 407.979 1736.95 413.816C1729.82 419.653 1720.12 417.992 1717.62 415.053C1715.12 412.114 1715.98 401.98 1723.11 396.143Z" fill="#FBA30F"></path>
<path d="M1719.51 400.168L1726.44 408.309L1733.13 416.168C1727.39 418.718 1720.18 418.062 1717.68 415.123C1715.18 412.184 1716.51 403.937 1719.51 400.168Z" fill="#3A3637"></path>
<ellipse cx="6.9605" cy="7.45605" rx="6.9605" ry="7.45605" transform="matrix(-0.650846 -0.76454 0.770712 -0.630925 1713.04 427.828)" fill="#FBA30F"></ellipse>
<path d="M1740.29 410.303L1726.4 393.986C1726.4 393.986 1727.24 393.555 1727.8 393.321C1728.78 392.91 1729.35 392.75 1730.37 392.472C1731.05 392.289 1731.43 392.192 1732.11 392.064C1733.05 391.889 1734.52 391.767 1734.52 391.767L1743.88 402.763C1743.88 402.763 1743.56 404.051 1743.2 404.936C1742.89 405.712 1742.67 406.175 1742.3 406.929C1742.01 407.511 1741.76 407.961 1741.44 408.527C1741.03 409.249 1740.29 410.303 1740.29 410.303Z" fill="#3A3637"></path>
<g filter="url('#filter0_d_290_131')">
<path d="M1729.31 422.167C1721.74 421.111 1722.71 409.411 1730.4 409.206C1730.84 409.195 1731.28 409.217 1731.72 409.277C1737.82 410.128 1742.22 413.704 1741.56 417.263C1740.9 420.823 1735.41 423.018 1729.31 422.167V422.167Z" fill="#D9D9D9"></path>
<path d="M1730.4 409.698C1730.81 409.687 1731.22 409.707 1731.63 409.764C1734.6 410.179 1737.14 411.256 1738.84 412.636C1740.55 414.023 1741.35 415.652 1741.06 417.193C1740.77 418.735 1739.42 420.064 1737.3 420.916C1735.18 421.764 1732.38 422.096 1729.4 421.681C1725.95 421.199 1724.4 418.296 1724.64 415.389C1724.88 412.484 1726.9 409.791 1730.4 409.698Z" stroke="#3A3637"></path>
</g>
<g filter="url('#filter1_d_290_131')">
<path d="M1725.53 403.005C1723.94 410.375 1711.78 410.717 1712.12 403.361C1712.14 402.952 1712.19 402.542 1712.28 402.13C1713.57 396.128 1717.59 391.457 1721.24 391.698C1724.9 391.94 1726.82 397.002 1725.53 403.005V403.005Z" fill="#D9D9D9"></path>
<path d="M1712.63 403.316C1712.65 402.932 1712.7 402.547 1712.78 402.164C1713.41 399.233 1714.71 396.651 1716.26 394.846C1717.82 393.03 1719.56 392.078 1721.14 392.182C1722.72 392.286 1724.01 393.439 1724.76 395.407C1725.5 397.363 1725.66 400.041 1725.03 402.972C1724.3 406.342 1721.16 408.138 1718.16 408.221C1715.15 408.303 1712.48 406.67 1712.63 403.316Z" stroke="#3A3637"></path>
</g>
<path d="M1715.32 422.331C1716.96 422.047 1717.93 420.274 1718.07 421.193C1718.2 422.112 1716.58 423.16 1715.28 423.385C1713.98 423.611 1712.14 423.168 1712 422.249C1711.87 421.33 1713.55 422.638 1715.32 422.331Z" fill="#3A3637"></path>
<path d="M1600.64 797.546C1601.48 798.944 1600.67 800.725 1601.51 800.282C1602.35 799.84 1602.14 797.999 1601.48 796.892C1600.82 795.784 1599.25 794.662 1598.41 795.104C1597.57 795.547 1599.74 796.04 1600.64 797.546Z" fill="#3A3637"></path>
<path d="M1603.39 789.763C1604.93 789.17 1605.41 787.277 1605.79 788.134C1606.17 788.99 1604.85 790.314 1603.63 790.784C1602.42 791.254 1600.48 791.188 1600.09 790.332C1599.71 789.475 1601.73 790.402 1603.39 789.763Z" fill="#3A3637"></path>
<ellipse cx="1.39134" cy="3.81437" rx="1.39134" ry="3.81437" transform="matrix(-0.328847 0.933145 -0.957151 -0.32436 1559.46 777.548)" fill="#3A3637"></ellipse>
<path d="M1569.35 794.547C1560.57 791.572 1555.63 782.244 1556.91 778.625C1558.18 775.007 1568.86 770.823 1577.64 773.798C1586.42 776.773 1589.98 785.78 1588.7 789.399C1587.43 793.017 1578.13 797.522 1569.35 794.547Z" fill="#FBA30F"></path>
<path d="M1574.72 795.493L1578.26 785.47L1581.67 775.794C1586.86 779.302 1590.01 785.693 1588.73 789.311C1587.46 792.93 1579.56 796.065 1574.72 795.493Z" fill="#3A3637"></path>
<ellipse cx="7.02138" cy="7.39177" rx="7.02138" ry="7.39177" transform="matrix(-0.328847 0.933145 -0.957151 -0.32436 1602.22 786.645)" fill="#FBA30F"></ellipse>
<path d="M1572.85 772.805L1565.77 792.895C1565.77 792.895 1564.96 792.412 1564.46 792.065C1563.6 791.459 1563.16 791.057 1562.4 790.345C1561.89 789.873 1561.61 789.603 1561.14 789.093C1560.51 788.4 1559.64 787.224 1559.64 787.224L1564.41 773.687C1564.41 773.687 1565.7 773.295 1566.66 773.138C1567.5 773 1568.02 772.945 1568.86 772.865C1569.52 772.803 1570.04 772.783 1570.7 772.759C1571.54 772.729 1572.85 772.805 1572.85 772.805Z" fill="#3A3637"></path>
<g filter="url('#filter2_d_290_131')">
<path d="M1588.88 775.904C1591.86 782.799 1581.13 788.025 1576.99 781.674C1576.76 781.312 1576.55 780.934 1576.38 780.54C1573.97 774.978 1574.82 769.431 1578.27 768.151C1581.72 766.871 1586.47 770.342 1588.88 775.904V775.904Z" fill="#D9D9D9"></path>
<path d="M1577.42 781.425C1577.2 781.085 1577.01 780.732 1576.85 780.365C1575.68 777.652 1575.31 774.964 1575.64 772.823C1575.96 770.671 1576.98 769.161 1578.47 768.607C1579.96 768.053 1581.82 768.499 1583.66 769.846C1585.5 771.186 1587.23 773.366 1588.4 776.079C1589.77 779.228 1588.03 782.024 1585.36 783.32C1582.7 784.615 1579.31 784.318 1577.42 781.425Z" stroke="#3A3637"></path>
</g>
<g filter="url('#filter3_d_290_131')">
<path d="M1574.1 788.974C1581.36 786.5 1587.94 796.537 1581.33 800.051C1580.96 800.246 1580.58 800.415 1580.17 800.554C1574.26 802.567 1568.11 801.607 1566.43 798.41C1564.75 795.212 1568.19 790.988 1574.1 788.974V788.974Z" fill="#D9D9D9"></path>
<path d="M1581.03 799.642C1580.68 799.826 1580.32 799.984 1579.94 800.113C1577.06 801.096 1574.13 801.345 1571.76 800.974C1569.37 800.601 1567.63 799.625 1566.91 798.247C1566.19 796.869 1566.53 795.188 1567.86 793.546C1569.18 791.913 1571.44 790.398 1574.33 789.415C1577.65 788.283 1580.84 789.987 1582.46 792.472C1584.09 794.954 1584.04 798.04 1581.03 799.642Z" stroke="#3A3637"></path>
</g>
<path d="M1596.25 787.572C1595.15 786.342 1593.1 786.438 1593.83 785.851C1594.57 785.263 1596.32 786.089 1597.19 787.062C1598.05 788.036 1598.62 789.814 1597.89 790.402C1597.15 790.989 1597.42 788.896 1596.25 787.572Z" fill="#3A3637"></path>
<defs>
<filter id="filter0_d_290_131" x="1720.11" y="409.203" width="25.5156" height="21.1472" filterUnits="userSpaceOnUse" color-interpolation-filters="sRGB">
<feFlood flood-opacity="0" result="BackgroundImageFix"></feFlood>
<feColorMatrix in="SourceAlpha" type="matrix" values="0 0 0 0 0 0 0 0 0 0 0 0 0 0 0 0 0 0 127 0" result="hardAlpha"></feColorMatrix>
<feOffset dy="4"></feOffset>
<feGaussianBlur stdDeviation="2"></feGaussianBlur>
<feComposite in2="hardAlpha" operator="out"></feComposite>
<feColorMatrix type="matrix" values="0 0 0 0 0.227451 0 0 0 0 0.211765 0 0 0 0 0.215686 0 0 0 0.5 0"></feColorMatrix>
<feBlend mode="normal" in2="BackgroundImageFix" result="effect1_dropShadow_290_131"></feBlend>
<feBlend mode="normal" in="SourceGraphic" in2="effect1_dropShadow_290_131" result="shape"></feBlend>
</filter>
<filter id="filter1_d_290_131" x="1708.11" y="391.689" width="21.8184" height="25.019" filterUnits="userSpaceOnUse" color-interpolation-filters="sRGB">
<feFlood flood-opacity="0" result="BackgroundImageFix"></feFlood>
<feColorMatrix in="SourceAlpha" type="matrix" values="0 0 0 0 0 0 0 0 0 0 0 0 0 0 0 0 0 0 127 0" result="hardAlpha"></feColorMatrix>
<feOffset dy="4"></feOffset>
<feGaussianBlur stdDeviation="2"></feGaussianBlur>
<feComposite in2="hardAlpha" operator="out"></feComposite>
<feColorMatrix type="matrix" values="0 0 0 0 0.227451 0 0 0 0 0.211765 0 0 0 0 0.215686 0 0 0 0.5 0"></feColorMatrix>
<feBlend mode="normal" in2="BackgroundImageFix" result="effect1_dropShadow_290_131"></feBlend>
<feBlend mode="normal" in="SourceGraphic" in2="effect1_dropShadow_290_131" result="shape"></feBlend>
</filter>
<filter id="filter2_d_290_131" x="1571.01" y="767.885" width="22.3848" height="24.6541" filterUnits="userSpaceOnUse" color-interpolation-filters="sRGB">
<feFlood flood-opacity="0" result="BackgroundImageFix"></feFlood>
<feColorMatrix in="SourceAlpha" type="matrix" values="0 0 0 0 0 0 0 0 0 0 0 0 0 0 0 0 0 0 127 0" result="hardAlpha"></feColorMatrix>
<feOffset dy="4"></feOffset>
<feGaussianBlur stdDeviation="2"></feGaussianBlur>
<feComposite in2="hardAlpha" operator="out"></feComposite>
<feColorMatrix type="matrix" values="0 0 0 0 0.227451 0 0 0 0 0.211765 0 0 0 0 0.215686 0 0 0 0.5 0"></feColorMatrix>
<feBlend mode="normal" in2="BackgroundImageFix" result="effect1_dropShadow_290_131"></feBlend>
<feBlend mode="normal" in="SourceGraphic" in2="effect1_dropShadow_290_131" result="shape"></feBlend>
</filter>
<filter id="filter3_d_290_131" x="1562.01" y="788.587" width="26.0488" height="21.02" filterUnits="userSpaceOnUse" color-interpolation-filters="sRGB">
<feFlood flood-opacity="0" result="BackgroundImageFix"></feFlood>
<feColorMatrix in="SourceAlpha" type="matrix" values="0 0 0 0 0 0 0 0 0 0 0 0 0 0 0 0 0 0 127 0" result="hardAlpha"></feColorMatrix>
<feOffset dy="4"></feOffset>
<feGaussianBlur stdDeviation="2"></feGaussianBlur>
<feComposite in2="hardAlpha" operator="out"></feComposite>
<feColorMatrix type="matrix" values="0 0 0 0 0.227451 0 0 0 0 0.211765 0 0 0 0 0.215686 0 0 0 0.5 0"></feColorMatrix>
<feBlend mode="normal" in2="BackgroundImageFix" result="effect1_dropShadow_290_131"></feBlend>
<feBlend mode="normal" in="SourceGraphic" in2="effect1_dropShadow_290_131" result="shape"></feBlend>
</filter>
<linearGradient id="paint0_linear_290_131" x1="1748.01" y1="808.26" x2="1818.51" y2="808.25" gradientUnits="userSpaceOnUse">
<stop stop-color="#FFCA00"></stop>
<stop offset="0.96" stop-color="#FBA30F" stop-opacity="0.6"></stop>
</linearGradient>
<linearGradient id="paint1_linear_290_131" x1="1747.99" y1="700.26" x2="1818.49" y2="700.25" gradientUnits="userSpaceOnUse">
<stop stop-color="#FFCA00"></stop>
<stop offset="0.96" stop-color="#FBA30F" stop-opacity="0.6"></stop>
</linearGradient>
<linearGradient id="paint2_linear_290_131" x1="1747.98" y1="592.26" x2="1818.48" y2="592.25" gradientUnits="userSpaceOnUse">
<stop stop-color="#FFCA00"></stop>
<stop offset="0.96" stop-color="#FBA30F" stop-opacity="0.6"></stop>
</linearGradient>
<linearGradient id="paint3_linear_290_131" x1="1747.96" y1="484.26" x2="1818.46" y2="484.25" gradientUnits="userSpaceOnUse">
<stop stop-color="#FFCA00"></stop>
<stop offset="0.96" stop-color="#FBA30F" stop-opacity="0.6"></stop>
</linearGradient>
<linearGradient id="paint4_linear_290_131" x1="1747.95" y1="376.26" x2="1818.45" y2="376.25" gradientUnits="userSpaceOnUse">
<stop stop-color="#FFCA00"></stop>
<stop offset="0.96" stop-color="#FBA30F" stop-opacity="0.6"></stop>
</linearGradient>
<linearGradient id="paint5_linear_290_131" x1="1747.93" y1="268.26" x2="1818.43" y2="268.25" gradientUnits="userSpaceOnUse">
<stop stop-color="#FFCA00"></stop>
<stop offset="0.96" stop-color="#FBA30F" stop-opacity="0.6"></stop>
</linearGradient>
<linearGradient id="paint6_linear_290_131" x1="1747.92" y1="160.26" x2="1818.42" y2="160.25" gradientUnits="userSpaceOnUse">
<stop stop-color="#FFCA00"></stop>
<stop offset="0.96" stop-color="#FBA30F" stop-opacity="0.6"></stop>
</linearGradient>
<linearGradient id="paint7_linear_290_131" x1="1747.9" y1="52.2595" x2="1818.4" y2="52.2499" gradientUnits="userSpaceOnUse">
<stop stop-color="#FFCA00"></stop>
<stop offset="0.96" stop-color="#FBA30F" stop-opacity="0.6"></stop>
</linearGradient>
<linearGradient id="paint8_linear_290_131" x1="1644" y1="762.024" x2="1744" y2="762.01" gradientUnits="userSpaceOnUse">
<stop stop-color="#FFCA00"></stop>
<stop offset="0.96" stop-color="#FBA30F" stop-opacity="0.6"></stop>
</linearGradient>
<linearGradient id="paint9_linear_290_131" x1="1643.98" y1="655.024" x2="1743.98" y2="655.01" gradientUnits="userSpaceOnUse">
<stop stop-color="#FFCA00"></stop>
<stop offset="0.96" stop-color="#FBA30F" stop-opacity="0.6"></stop>
</linearGradient>
<linearGradient id="paint10_linear_290_131" x1="1643.97" y1="548.024" x2="1743.97" y2="548.01" gradientUnits="userSpaceOnUse">
<stop stop-color="#FFCA00"></stop>
<stop offset="0.96" stop-color="#FBA30F" stop-opacity="0.6"></stop>
</linearGradient>
<linearGradient id="paint11_linear_290_131" x1="1643.96" y1="441.024" x2="1743.96" y2="441.01" gradientUnits="userSpaceOnUse">
<stop stop-color="#FFCA00"></stop>
<stop offset="0.96" stop-color="#FBA30F" stop-opacity="0.6"></stop>
</linearGradient>
<linearGradient id="paint12_linear_290_131" x1="1643.94" y1="334.024" x2="1743.94" y2="334.01" gradientUnits="userSpaceOnUse">
<stop stop-color="#FFCA00"></stop>
<stop offset="0.96" stop-color="#FBA30F" stop-opacity="0.6"></stop>
</linearGradient>
<linearGradient id="paint13_linear_290_131" x1="1643.93" y1="227.024" x2="1743.93" y2="227.01" gradientUnits="userSpaceOnUse">
<stop stop-color="#FFCA00"></stop>
<stop offset="0.96" stop-color="#FBA30F" stop-opacity="0.6"></stop>
</linearGradient>
<linearGradient id="paint14_linear_290_131" x1="1643.91" y1="120.024" x2="1743.91" y2="120.01" gradientUnits="userSpaceOnUse">
<stop stop-color="#FFCA00"></stop>
<stop offset="0.96" stop-color="#FBA30F" stop-opacity="0.6"></stop>
</linearGradient>
<linearGradient id="paint15_linear_290_131" x1="1544.01" y1="817.037" x2="1644.01" y2="817.024" gradientUnits="userSpaceOnUse">
<stop stop-color="#FFCA00"></stop>
<stop offset="0.96" stop-color="#FBA30F" stop-opacity="0.6"></stop>
</linearGradient>
<linearGradient id="paint16_linear_290_131" x1="1543.99" y1="710.037" x2="1643.99" y2="710.024" gradientUnits="userSpaceOnUse">
<stop stop-color="#FFCA00"></stop>
<stop offset="0.96" stop-color="#FBA30F" stop-opacity="0.6"></stop>
</linearGradient>
<linearGradient id="paint17_linear_290_131" x1="1543.98" y1="603.037" x2="1643.98" y2="603.024" gradientUnits="userSpaceOnUse">
<stop stop-color="#FFCA00"></stop>
<stop offset="0.96" stop-color="#FBA30F" stop-opacity="0.6"></stop>
</linearGradient>
<linearGradient id="paint18_linear_290_131" x1="1543.97" y1="496.037" x2="1643.97" y2="496.024" gradientUnits="userSpaceOnUse">
<stop stop-color="#FFCA00"></stop>
<stop offset="0.96" stop-color="#FBA30F" stop-opacity="0.6"></stop>
</linearGradient>
<linearGradient id="paint19_linear_290_131" x1="1543.95" y1="389.037" x2="1643.95" y2="389.024" gradientUnits="userSpaceOnUse">
<stop stop-color="#FFCA00"></stop>
<stop offset="0.96" stop-color="#FBA30F" stop-opacity="0.6"></stop>
</linearGradient>
<linearGradient id="paint20_linear_290_131" x1="1543.93" y1="282.037" x2="1643.93" y2="282.024" gradientUnits="userSpaceOnUse">
<stop stop-color="#FFCA00"></stop>
<stop offset="0.96" stop-color="#FBA30F" stop-opacity="0.6"></stop>
</linearGradient>
<linearGradient id="paint21_linear_290_131" x1="1543.92" y1="175.037" x2="1643.92" y2="175.024" gradientUnits="userSpaceOnUse">
<stop stop-color="#FFCA00"></stop>
<stop offset="0.96" stop-color="#FBA30F" stop-opacity="0.6"></stop>
</linearGradient>
<linearGradient id="paint22_linear_290_131" x1="1539.9" y1="56.0378" x2="1639.9" y2="56.0242" gradientUnits="userSpaceOnUse">
<stop stop-color="#FFCA00"></stop>
<stop offset="0.96" stop-color="#FBA30F" stop-opacity="0.6"></stop>
</linearGradient>
<linearGradient id="paint23_linear_290_131" x1="1643.9" y1="34.5237" x2="1743.9" y2="34.5101" gradientUnits="userSpaceOnUse">
<stop stop-color="#FFCA00"></stop>
<stop offset="0.96" stop-color="#FBA30F" stop-opacity="0.6"></stop>
</linearGradient>
<linearGradient id="paint24_linear_290_131" x1="1744" y1="839" x2="1644" y2="839.014" gradientUnits="userSpaceOnUse">
<stop stop-color="#FFCA00"></stop>
<stop offset="0.96" stop-color="#FBA30F" stop-opacity="0.6"></stop>
</linearGradient>
</defs>
</svg>
